<svg id="Layer_1" data-name="Layer 1" xmlns="http://www.w3.org/2000/svg" viewBox="0 0 681.309 501.999">
  <g>
    <polygon points="600.625 51.385 578.756 69.342 51.893 501.999 0 501.999 557.318 44.328 579.72 25.933 600.625 51.385" fill="#c1d8ed"></polygon>
    <polygon points="524.847 6.458 640.487 0 612.214 108.369 524.847 6.458" fill="#c1d8ed"></polygon>
    <g>
      <rect x="117.517" y="465.02" width="31.294" height="36.979" fill="#f3f5fd"></rect>
      <rect x="180.192" y="415.071" width="31.294" height="86.928" fill="#f3f5fd"></rect>
      <rect x="242.86" y="367.263" width="31.302" height="134.736" fill="#f3f5fd"></rect>
      <rect x="305.535" y="315.173" width="31.295" height="186.826" fill="#f3f5fd"></rect>
      <rect x="368.202" y="264.119" width="31.302" height="237.88" fill="#f3f5fd"></rect>
      <rect x="430.877" y="215.119" width="31.294" height="286.88" fill="#f3f5fd"></rect>
      <rect x="493.552" y="167.005" width="31.295" height="334.994" fill="#f3f5fd"></rect>
      <rect x="556.22" y="118.969" width="31.302" height="383.03" fill="#f3f5fd"></rect>
    </g>
  </g>
  <g>
    <path d="M249.105,454.935l-20.148-5.918c1.141-3.885,4.915-16.712,5.552-18.592l19.888,6.74C254.015,438.312,251.409,447.094,249.105,454.935Zm5.292-17.77-9.944-3.37,9.946,3.365,0,0Z" fill="#E98862"></path>
    <path d="M269.33,474.779a4.108,4.108,0,0,0,5.281-2.885h0a4.109,4.109,0,0,0-1.385-4.2L252.7,452.1a3.46,3.46,0,0,0-2.823-.619,19.1,19.1,0,0,1-11.952-.459,17.023,17.023,0,0,1-7.32-5.883,1.547,1.547,0,0,0-2.779.327l-3.836,11.32a2.677,2.677,0,0,0,1.687,3.4Z" fill="#c1d8ed"></path>
    <path d="M271.847,279.457c-30.358-2.755-73.263-7.51-103.277-9.306l-.906,45.2c25.448-.076,52.8,1.223,79.124,2.642-7.208,40.992-15.041,82.466-24.356,122.764l36.249,7.417c6.336-35.8,14.51-73.3,22.646-108.782C284.024,319.8,303.669,283.585,271.847,279.457Z" fill="#262626"></path>
    <path d="M271.847,279.457c-30.358-2.755-73.263-7.51-103.277-9.306l-.906,45.2c25.448-.076,52.8,1.223,79.124,2.642-7.208,40.992-15.041,82.466-24.356,122.764l36.249,7.417c6.336-35.8,14.51-73.3,22.646-108.782C284.024,319.8,303.669,283.585,271.847,279.457Z" opacity="0.12"></path>
    <g>
      <g>
        <rect x="123.375" y="449.492" width="115.041" height="25.982" rx="8.513" fill="#00D176"></rect>
        <rect x="108.116" y="423.51" width="115.041" height="25.982" rx="8.513" fill="#00D176"></rect>
        <rect x="123.375" y="397.527" width="115.041" height="25.982" rx="8.513" fill="#00D176"></rect>
        <rect x="115.746" y="372.017" width="115.041" height="25.982" rx="8.513" fill="#00D176"></rect>
        <rect x="100.486" y="346.034" width="115.041" height="25.982" rx="8.513" fill="#00D176"></rect>
        <rect x="115.746" y="320.052" width="115.041" height="25.982" rx="8.513" fill="#00D176"></rect>
      </g>
      <rect x="114.191" y="475.474" width="115.041" height="25.982" rx="8.513" fill="#00D176"></rect>
    </g>
    <path d="M286.594,267.093c-7.358-12.847-32.819-13.843-32.819-13.843l-4.626,12.831-.011.03a43.4,43.4,0,0,0,8.736,2.876c4.688,1.4,9.2,2.394,9.972,1.356.467-.623-.843-2-2.277-3.228,5.3-.8,13.191.9,18.833,2.695a1.874,1.874,0,0,0,2.192-2.717Z" fill="#E98862"></path>
    <path d="M251.406,269.293l-44.619-22.582a10.5,10.5,0,0,1-5.309-6.328l-18.245-60.319,20.1-6.08L220.278,230l40.611,20.553Z" fill="#225EDD"></path>
    <path d="M300.063,468.975l-21-.068s.07-21.686.07-23.6h21C300.133,447.227,300.063,468.975,300.063,468.975Z" fill="#E98862"></path>
    <path d="M310.092,453.957c-25.823-104.109-25.107-146.469-35.93-161.072-8.975-12.109-73.032-16.033-73.032-16.033l-77.244-7.915L121.743,296c2.516,28.056,28.017,26.18,46.5,27.624,24.308,2.336,48.079,3.908,72.162,3.989L274.078,462.44Z" fill="#262626"></path>
    <path d="M325.591,477.1a4.107,4.107,0,0,0,4.076-4.427h0a4.108,4.108,0,0,0-2.658-3.529l-24.443-8.187a3.461,3.461,0,0,0-2.872.32,19.112,19.112,0,0,1-11.468,3.4,17.031,17.031,0,0,1-8.82-3.222,1.547,1.547,0,0,0-2.528,1.2v11.952a2.678,2.678,0,0,0,2.689,2.678Z" fill="#c1d8ed"></path>
    <path d="M206.031,276.98c-4.189,9.63-86.519,13.63-87.619-3.31-.7-10.78,8.8-20.19,8.8-41.2s-19.33-47.84-3.58-63.59c4.57-4.57,12.46-7.52,22.08-7.53.72,5.61,34.78,5.63,35.04.13,1.3.02,2.31.04,2.94.07,33.18,1.43,18.6,39.19,18.28,66.93C201.582,260.94,210.352,267.06,206.031,276.98Z" fill="#225EDD"></path>
    <path d="M232.121,267.093C224.763,254.246,199.3,253.25,199.3,253.25l-4.626,12.831-.011.03a43.408,43.408,0,0,0,8.735,2.876c4.689,1.4,9.2,2.394,9.973,1.356.467-.623-.843-2-2.278-3.228,5.3-.8,13.192.9,18.834,2.695a1.874,1.874,0,0,0,2.192-2.717Z" fill="#E98862"></path>
    <path d="M180.752,161.48c-.26,5.5-3.25,13.59-12.48,14.2-12.3.81-21.84-8.72-22.56-14.33h.03C157.852,161.35,173.692,161.37,180.752,161.48Z" fill="#E98862"></path>
    <path d="M202.117,272.114l-72.692-14.363a10.9,10.9,0,0,1-8.779-10.23l-2.836-66.337,21.785-.932,2.469,57.77,64.28,12.7Z" fill="#225EDD"></path>
    <g>
      <g>
        <path d="M225.809,221.927,213.666,272.9a5.4,5.4,0,0,0,5.252,6.649H290.5a5.4,5.4,0,0,0,5.206-3.969L309.7,224.607a5.4,5.4,0,0,0-5.206-6.828H231.06A5.4,5.4,0,0,0,225.809,221.927Z" fill="#a0bcea"></path>
        <rect x="185.011" y="273.203" width="92.863" height="6.344" rx="3.172" fill="#a0bcea"></rect>
      </g>
      <circle cx="264.614" cy="248.16" r="8.466" fill="#fff"></circle>
    </g>
    <g>
      <path d="M189.164,107.234s7.58,27.159,11.838,41.252a4.467,4.467,0,0,1-4.281,5.759h-26.6a4.471,4.471,0,0,1-4.466-4.259l-1.793-37.807Z" fill="#0f1011"></path>
      <path d="M151.294,164.408c1.99-3.35,4.11-9.84,3.13-21.911l15.98-2.95s-1.81,18.851,6.25,24.861Z" fill="#E98862"></path>
      <path d="M173.4,160.478l-13.263-10.166,10.424-.1A28.725,28.725,0,0,0,173.4,160.478Z" opacity="0.15"></path>
      <path d="M145.369,134.325c1.1,6.389,4.581,12.442,10.215,14.51a40.49,40.49,0,0,0,19.355,2.633c17.491-1.418,14.067-41.189,5.77-48.921s-32.67-2.862-35.646,10.055C143.524,119.283,144.322,128.248,145.369,134.325Z" fill="#E98862"></path>
      <g>
        <circle cx="170.394" cy="127.977" r="1.449" fill="#0f1011"></circle>
        <circle cx="181.826" cy="127.05" r="1.449" fill="#0f1011"></circle>
        <path d="M184.339,123.965h-.008l-3.839-.052a.681.681,0,0,1-.672-.69.659.659,0,0,1,.689-.672l3.839.052a.681.681,0,0,1-.009,1.362Z" fill="#0f1011"></path>
        <path d="M167.268,125.349a.681.681,0,0,1-.158-1.343l3.785-.907a.681.681,0,0,1,.318,1.324l-3.785.907A.673.673,0,0,1,167.268,125.349Z" fill="#0f1011"></path>
        <path d="M171.054,139.389s5.348.569,9.1-.737c0,0-.033,3.522-4.266,3.866S171.054,139.389,171.054,139.389Z" fill="#fff"></path>
      </g>
      <g opacity="0.15">
        <path d="M176.819,136.02a.5.5,0,0,1-.146-.978l2.947-.9-2.058-4.592a.5.5,0,0,1,.912-.408l2.2,4.905a.7.7,0,0,1-.432.952l-3.274,1A.5.5,0,0,1,176.819,136.02Z"></path>
      </g>
      <path d="M190.076,110.49s-2.561-20.713-35.75-15.626c-8.274,1.268-20,7.728-21.9,28.9-.868,9.712-4.216,18.869-6.77,24.665a4.471,4.471,0,0,0,4.083,6.286l23.33.008a4.465,4.465,0,0,0,4.472-4.456c0-.066,0-.131,0-.2-.168-3.971-.3-10.694-.074-20.97,1.213-5.865-2.018-10,2.672-8.652C177.553,125.442,188.768,110.825,190.076,110.49Z" fill="#0f1011"></path>
      <path d="M163.072,134.216a6.143,6.143,0,1,1-12.246.993,6.041,6.041,0,0,1,5.421-6.6c.068-.007.136-.013.2-.017C160.831,128.448,162.8,130.834,163.072,134.216Z" fill="#E98862"></path>
    </g>
  </g>
  <g>
    <g>
      <path d="M620.777,440.355H678.4a2.913,2.913,0,0,1,2.913,2.913V457.99A2.913,2.913,0,0,1,678.4,460.9H620.777Z" fill="#8ddbe0"></path>
      <rect x="518.66" y="440.355" width="30.544" height="20.548" fill="#00D176"></rect>
      <path d="M441.326,440.355h77.057V460.9H441.326a2.912,2.912,0,0,1-2.912-2.912V443.268A2.913,2.913,0,0,1,441.326,440.355Z" fill="#8ddbe0"></path>
      <path d="M620.777,440.355H678.4a2.913,2.913,0,0,1,2.913,2.913V457.99A2.913,2.913,0,0,1,678.4,460.9H620.777Z" fill="#0f1011" opacity="0.15"></path>
      <path d="M549.2,440.355h72.058a2.913,2.913,0,0,1,2.913,2.913V457.99a2.913,2.913,0,0,1-2.913,2.912H549.2Z" fill="#8ddbe0"></path>
    </g>
    <g>
      <path d="M586.779,460.9H644.4a2.913,2.913,0,0,1,2.913,2.913v14.722a2.913,2.913,0,0,1-2.913,2.913H586.779Z" fill="#8ddbe0"></path>
      <rect x="484.663" y="460.902" width="30.544" height="20.548" fill="#00D176"></rect>
      <path d="M407.329,460.9h77.056V481.45H407.329a2.913,2.913,0,0,1-2.913-2.913V463.815A2.913,2.913,0,0,1,407.329,460.9Z" fill="#8ddbe0"></path>
      <path d="M586.779,460.9H644.4a2.913,2.913,0,0,1,2.913,2.913v14.722a2.913,2.913,0,0,1-2.913,2.913H586.779Z" fill="#0f1011" opacity="0.15"></path>
      <path d="M515.206,460.9h72.059a2.913,2.913,0,0,1,2.912,2.913v14.722a2.913,2.913,0,0,1-2.912,2.913H515.206Z" fill="#8ddbe0"></path>
    </g>
    <g>
      <path d="M598.287,481.45h57.619a2.913,2.913,0,0,1,2.913,2.913v14.722A2.913,2.913,0,0,1,655.906,502H598.287Z" fill="#8ddbe0"></path>
      <path d="M598.287,481.45h57.619a2.913,2.913,0,0,1,2.913,2.913v14.722A2.913,2.913,0,0,1,655.906,502H598.287Z" fill="#0f1011" opacity="0.15"></path>
      <rect x="496.17" y="481.45" width="30.544" height="20.548" fill="#00D176"></rect>
      <path d="M418.836,481.45h77.056V502H418.836a2.913,2.913,0,0,1-2.912-2.913V484.363A2.913,2.913,0,0,1,418.836,481.45Z" fill="#8ddbe0"></path>
      <path d="M526.714,481.45h72.058a2.913,2.913,0,0,1,2.913,2.913v14.722A2.913,2.913,0,0,1,598.772,502H526.714Z" fill="#8ddbe0"></path>
    </g>
  </g>
  <g>
    <path d="M601.327,324.457a4.3,4.3,0,0,0-2.94-1.336H566.318a4.291,4.291,0,0,0-2.939,1.336,357.127,357.127,0,0,0-36.88,45.164c-13.362,19.776-11.224,38.216,5.612,55.319,13.363,13.63,31,15.5,50.242,15.5s36.879-1.87,50.241-15.5c16.836-17.1,18.974-35.543,5.612-55.319A379.424,379.424,0,0,0,601.327,324.457Z" fill="#00D176"></path>
    <path d="M629.387,283.035c-4.692-5.255-12.547-.624-20.326,4.913a11.8,11.8,0,0,1-16.184-2.417c-3.392-4.38-7.095-8.108-10.524-8.108-3.271,0-7,3.721-10.433,8.1a11.734,11.734,0,0,1-16.278,2.088c-7.532-5.68-15.145-10.493-19.789-5.106-12.776,18.2,24.586,45.187,28.06,48.127.8.535,36.345.535,36.88,0C604.267,327.956,643.325,298.988,629.387,283.035Z" fill="#00D176"></path>
    <path d="M605.87,331.406H558.836a4.009,4.009,0,1,1,0-8.017H605.87a4.11,4.11,0,0,1,4.009,4.008A3.936,3.936,0,0,1,605.87,331.406Z" fill="#262626"></path>
    <path d="M579.3,417.511v-7.925a28.31,28.31,0,0,1-7.33-1.941,21.63,21.63,0,0,1-6.616-4.081l5.071-7.845a26.563,26.563,0,0,0,5.745,3.447,14.278,14.278,0,0,0,5.587,1.149q3.327,0,4.873-1.347a5.178,5.178,0,0,0,1.545-4.12,4.566,4.566,0,0,0-1.545-3.487,20.454,20.454,0,0,0-3.883-2.734q-2.338-1.307-5.032-2.614a28.153,28.153,0,0,1-5.032-3.13A16.6,16.6,0,0,1,568.8,378.6a11.1,11.1,0,0,1-1.545-6.023,14.625,14.625,0,0,1,3.209-9.706,14.809,14.809,0,0,1,8.835-4.953V349.76h7.686v8a17.47,17.47,0,0,1,6.656,2.3,24.626,24.626,0,0,1,5.151,4.2l-5.863,6.657a18.257,18.257,0,0,0-4.121-2.972,9.973,9.973,0,0,0-4.517-.991,6.91,6.91,0,0,0-4.358,1.189,4.653,4.653,0,0,0-1.506,3.883,4.052,4.052,0,0,0,1.545,3.209,20.113,20.113,0,0,0,3.883,2.5q2.337,1.188,5.032,2.457a26.532,26.532,0,0,1,5.031,3.09,15.954,15.954,0,0,1,3.884,4.4,12.221,12.221,0,0,1,1.545,6.38,15.74,15.74,0,0,1-3.091,9.785q-3.09,4.083-9.271,5.428v8.242Z" fill="#f1f1f1"></path>
  </g>
</svg>