<svg id="Layer_1" data-name="Layer 1" xmlns="http://www.w3.org/2000/svg" viewBox="0 0 356.928 640.085">
  <path d="M240.062,593.969,230.62,577.91c2.031-4.95,6.559-14.2,11.582-12.9,2.282.6,1.846,2.98.263,5.891,4.5-3.326,9.383-5.517,12.686-2.965,3,2.326.127,5.846-4.5,9.27,3.684-.154,6.816.656,8.17,3.316,1.941,3.8-3.482,5.8-10.172,6.839,2.2.9,3.813,2.248,4.244,4.23C253.8,595.744,247.012,595.364,240.062,593.969Z" fill="#8ddbe0"></path>
  <path d="M84.736,222.323,69.305,202.747c1.794-6.93,6.12-20.013,13.016-19.2,3.132.375,2.987,3.615,1.416,7.763,5.364-5.226,11.439-9.016,16.28-6.232,4.4,2.537,1.229,7.725-4.277,13.1,4.855-.872,9.155-.367,11.432,2.915,3.264,4.69-3.563,8.318-12.243,10.911,3.078.8,5.462,2.288,6.394,4.837C103.276,222.183,94.2,222.912,84.736,222.323Z" fill="#8ddbe0"></path>
  <path d="M334.566,640.085a2,2,0,0,1-1.989-1.824L297.245,237.95a2,2,0,1,1,3.984-.352l35.332,400.311a2,2,0,0,1-1.816,2.168C334.685,640.082,334.626,640.085,334.566,640.085Z" fill="#c1d8ed"></path>
  <polygon points="0 23.01 69.012 182.826 105.468 267.25 119.926 268.711 137.998 354.765 157.275 361.968 152.456 399.518 176.552 448.458 217.516 491.284 217.516 544.296 266.914 638.085 1.854 638.085 1.854 171.085 0 23.01" fill="#dee8f5"></polygon>
  <polygon points="105.468 267.25 30.795 263.152 35.456 278.053 42.917 272.616 105.468 267.25" fill="#c1d8ed"></polygon>
  <g>
    <path d="M311.111,237.211l-33.384-6.9a29.349,29.349,0,0,1-23.095-34.485L265.4,141.4a29.348,29.348,0,0,1,34.485-23.095l33.384,6.9a29.348,29.348,0,0,1,23.1,34.485L345.6,214.116A29.349,29.349,0,0,1,311.111,237.211Z" fill="#00D176"></path>
    <g>
      <path d="M159.369,364.457l-20.984-.809c.721-18.734,1.021-20.626,1.119-21.248l20.742,3.279c.01-.063.023-.144.034-.242C160.11,346.984,159.675,356.514,159.369,364.457Z" fill="#E98862"></path>
      <path d="M241.717,488.652,220.73,487.9s.783-21.733.859-23.657l20.984.824C242.5,466.981,241.717,488.651,241.717,488.652Z" fill="#E98862"></path>
      <path d="M308.983,276.046c10.343-20.2,8.473-41.007,8.473-41.007l-75.707-8.84-1.6,2.09c-24.566-3.617-49.253-6.419-74.029-8.09a18.505,18.505,0,0,0-20.041,16.223l-14.36,119.844,36.737,4.4,14.349-95.579c23.812,3.99,68.593,11.062,68.593,11.062s-21.781,45.037-33.706,67.556a19.315,19.315,0,0,0-2.74,9.322L210.98,478.894l36.955,1.817,8.043-120.425C272.776,331.534,297.679,295.22,308.983,276.046Z" fill="#262626"></path>
      <path d="M195.189,496.8a4.108,4.108,0,0,1-4.017-4.481h0a4.108,4.108,0,0,1,2.706-3.493l24.55-7.86a3.459,3.459,0,0,1,2.867.357,19.1,19.1,0,0,0,11.422,3.554,17.033,17.033,0,0,0,8.862-3.1,1.547,1.547,0,0,1,2.512,1.235l-.16,11.951a2.679,2.679,0,0,1-2.724,2.642Z" fill="#c1d8ed"></path>
      <path d="M111.451,370.152a4.106,4.106,0,0,1-3.334-5.009h0a4.108,4.108,0,0,1,3.177-3.071l25.421-4.267a3.462,3.462,0,0,1,2.788.765,19.111,19.111,0,0,0,10.8,5.151,17.036,17.036,0,0,0,9.216-1.805,1.546,1.546,0,0,1,2.308,1.582L159.955,375.3a2.678,2.678,0,0,1-3.074,2.225Z" fill="#c1d8ed"></path>
    </g>
    <g>
      <path d="M278.184,64.288s-10.758,26.065-16.662,39.551a4.465,4.465,0,0,0,3.566,6.227l26.411,3.165a4.473,4.473,0,0,0,4.941-3.7l6.278-37.325Z" fill="#0f1011"></path>
      <path d="M308.983,125.561c-1.577-3.563-2.91-10.259-.5-22.127L292.966,98.6s-.445,18.932-9.163,23.94Z" fill="#E98862"></path>
      <path d="M287.5,119.029l14.378-8.516-10.338-1.339A28.756,28.756,0,0,1,287.5,119.029Z" opacity="0.15"></path>
      <path d="M318.445,96.4c-1.852,6.213-6.029,11.809-11.869,13.192a40.488,40.488,0,0,1-19.531.311c-17.2-3.488-9.067-42.57.091-49.26s32.779,1.045,34.2,14.224C322.066,81.681,320.207,90.488,318.445,96.4Z" fill="#E98862"></path>
      <g>
        <circle cx="294.353" cy="87.117" r="1.449" fill="#0f1011"></circle>
        <circle cx="283.112" cy="84.837" r="1.449" fill="#0f1011"></circle>
        <path d="M280.983,81.474h.009l3.818.406a.682.682,0,0,0,.749-.606.659.659,0,0,0-.605-.749l-3.818-.405a.681.681,0,0,0-.153,1.353Z" fill="#0f1011"></path>
        <path d="M297.769,84.88a.681.681,0,0,0,.316-1.315l-3.65-1.351a.681.681,0,0,0-.474,1.277l3.651,1.351A.733.733,0,0,0,297.769,84.88Z" fill="#0f1011"></path>
        <path d="M292.34,98.369s-5.378-.071-8.948-1.814c0,0-.386,3.5,3.776,4.346S292.34,98.369,292.34,98.369Z" fill="#fff"></path>
      </g>
      <g opacity="0.15">
        <path d="M287.016,94.339a.5.5,0,0,0,.262-.954l-2.819-1.247,2.589-4.315a.5.5,0,1,0-.857-.514l-2.766,4.609a.7.7,0,0,0,.316,1l3.132,1.386A.545.545,0,0,0,287.016,94.339Z"></path>
      </g>
      <path d="M276.891,67.413s5.007-20.262,37.355-11.262c8.064,2.243,18.938,10.052,18.306,31.3-.293,9.746,1.942,19.236,3.788,25.3a4.47,4.47,0,0,1-4.8,5.755l-23.165-2.767a4.463,4.463,0,0,1-3.91-4.956c.007-.066.017-.131.027-.2.639-3.922,1.57-10.582,2.568-20.812-.506-5.967,3.193-9.689-1.624-8.908C287.546,83.748,278.15,67.9,276.891,67.413Z" fill="#0f1011"></path>
      <path d="M300.88,94.183a6.143,6.143,0,0,0,12.041,2.442,6.04,6.04,0,0,0-4.6-7.2c-.067-.015-.134-.028-.2-.041C303.792,88.722,301.556,90.857,300.88,94.183Z" fill="#E98862"></path>
    </g>
    <g>
      <path d="M147.778,125.482c-.824.565.7,3.234,1.928,5.116-4.865-.788-13.265-6.582-17.878-10a1.888,1.888,0,0,0-2.975,1.874c2.823,14.643,23.556,21.2,23.556,21.2l10.479-6.457S149.947,124,147.778,125.482Z" fill="#E98862"></path>
      <path d="M215.628,174.029a10.9,10.9,0,0,1-3.957-.744l-63.279-24.65,7.915-20.317,58.163,22.657,46-28.942,11.612,18.456-50.644,31.865A10.9,10.9,0,0,1,215.628,174.029Z" fill="#225EDD"></path>
      <path d="M235.184,228.42c2.419,10.22,82.742,28.724,86.822,12.246,2.6-10.486-5.088-21.428-1.37-42.107s27.49-43.665,14.775-61.953c-3.69-5.306-10.933-9.606-20.4-11.318-1.7,5.394-35.228-.613-34.51-6.072-1.284-.211-2.281-.37-2.906-.451-32.91-4.464-25.241,35.28-29.835,62.639C242.4,213.421,232.687,217.892,235.184,228.42Z" fill="#225EDD"></path>
      <path d="M280.5,119.216c-.718,5.459.794,13.95,9.77,16.184,11.962,2.974,23.038-4.718,24.74-10.112l-.03,0C303.063,123.14,287.47,120.357,280.5,119.216Z" fill="#E98862"></path>
      <path d="M237.465,217.417a1.99,1.99,0,0,1-1.12-.344l-41.391-28.037-47.912-56L9.111,3.458A2,2,0,0,1,11.85.543L149.94,130.269l.07.083,47.634,55.675,40.944,27.734a2,2,0,0,1-1.123,3.656Z" fill="#c1d8ed"></path>
      <path d="M147.9,131.123l-19.07-17.41a5.247,5.247,0,0,0-7.41.34l-1.38,1.52a5.236,5.236,0,0,0,.34,7.4l15.98,14.59a5.238,5.238,0,0,0,7.41-.33l4.2-4.6A1.082,1.082,0,0,0,147.9,131.123Zm-9.73-1.75-1.35,1.48a1.873,1.873,0,0,1-2.66.12l-11.18-10.2a1.894,1.894,0,0,1-.12-2.67l1.35-1.47a1.873,1.873,0,0,1,2.66-.12l11.18,10.2A1.882,1.882,0,0,1,138.169,129.373Z" fill="#c1d8ed"></path>
      <path d="M196.081,189.333l-15.746-20.465a5.248,5.248,0,0,0-7.356-.956l-1.624,1.257a5.236,5.236,0,0,0-.954,7.346l13.195,17.15a5.238,5.238,0,0,0,7.354.966l4.937-3.8A1.081,1.081,0,0,0,196.081,189.333Zm-9.276-3.418-1.587,1.223a1.874,1.874,0,0,1-2.641-.345L173.345,174.8a1.893,1.893,0,0,1,.347-2.65l1.585-1.212a1.873,1.873,0,0,1,2.64.345l9.233,11.991A1.883,1.883,0,0,1,186.805,185.915Z" fill="#c1d8ed"></path>
      <path d="M248.812,174.962a2,2,0,0,1-.326-3.973c.312-.058,21.239-4.405,27.124-52.468a2,2,0,0,1,3.971.487c-6.309,51.527-29.472,55.773-30.454,55.929A1.986,1.986,0,0,1,248.812,174.962Z" fill="#00D176"></path>
      <path d="M321.384,197.29a1.994,1.994,0,0,1-1.177-.384c-9.969-7.276-15.622-16.338-16.8-26.935-2.491-22.364,15.7-43.462,16.476-44.35a2,2,0,0,1,3.012,2.632c-.178.205-17.816,20.69-15.511,41.292,1.056,9.428,6.164,17.547,15.184,24.13a2,2,0,0,1-1.181,3.615Z" fill="#00D176"></path>
      <path d="M197.6,177.463c-.7.71,1.3,3.045,2.857,4.661-4.929.143-14.275-3.969-19.446-6.454a1.889,1.889,0,0,0-2.549,2.441c5.553,13.816,27.111,16.347,27.111,16.347l9.076-8.314S199.45,175.6,197.6,177.463Z" fill="#E98862"></path>
      <path d="M279.261,203.078c-.209,0-.42-.006-.63-.018l-74.112-4.29L205.778,177,275,181.009l40.712-40.874,15.448,15.387-44.171,44.347A10.9,10.9,0,0,1,279.261,203.078Z" fill="#225EDD"></path>
      <path d="M310.926,235.574c-25.883,0-69.119-14.45-74.751-16.371a4,4,0,1,1,2.583-7.571c17.313,5.9,65.7,20.074,81.478,14.835a4,4,0,1,1,2.522,7.592A38.579,38.579,0,0,1,310.926,235.574Z" fill="#c1d8ed"></path>
    </g>
  </g>
</svg>