<svg id="Layer_1" data-name="Layer 1" xmlns="http://www.w3.org/2000/svg" viewBox="0 0 665.611 601.426">
  <g>
    <g>
      <ellipse cx="355.337" cy="532.559" rx="310.274" ry="68.867" fill="#fff"></ellipse>
      <ellipse cx="355.337" cy="532.559" rx="310.274" ry="68.867" fill="#367cff" opacity="0.16"></ellipse>
    </g>
    <g>
      <g>
        <g>
          <g>
            <path d="M67.3,208.257a4.794,4.794,0,0,1,4.9-2.593.368.368,0,0,1,.448-.412l-3.322-2.381a4.985,4.985,0,0,1-1.645-6.341,4.8,4.8,0,0,1,6.071-2.148c-.008-.047.023-.092.03-.14l-1.365-.979a4.922,4.922,0,0,1-1.73-5.982,4.809,4.809,0,0,1,7.184-1.932l3.15,2.258c.009-.019,0-.041.013-.058s.046-.024.064-.043a4.8,4.8,0,0,1-.316-5.982c1.486-2.393,4.919-1.9,6.955-.444l18.539,12.8-3.314-5.578a4.988,4.988,0,0,1,1.32-6.681,4.8,4.8,0,0,1,6.8,1.539l18.093,30.46a15.968,15.968,0,0,1-5.186,21.645h0a24.2,24.2,0,0,1-27.043-.776l-28-20.067A5.146,5.146,0,0,1,67.3,208.257Z" fill="#E98862"></path>
            <g opacity="0.25">
              <path d="M99.367,200.263a.443.443,0,0,1-.611.1l-17.615-12.2a.444.444,0,0,1,.506-.729l17.614,12.2a.444.444,0,0,1,.112.617Z" fill="#0c0c0c"></path>
            </g>
            <g opacity="0.25">
              <path d="M94.2,208.18a.442.442,0,0,1-.61.1L73.932,194.668a.444.444,0,0,1-.112-.618.459.459,0,0,1,.617-.111L94.1,207.554a.444.444,0,0,1,.112.617Z" fill="#0c0c0c"></path>
            </g>
            <g opacity="0.25">
              <path d="M88.654,216.787a.443.443,0,0,1-.611.1L72.362,206.029a.443.443,0,1,1,.506-.728l15.68,10.86a.443.443,0,0,1,.112.617Z" fill="#0c0c0c"></path>
            </g>
          </g>
          <path d="M132.727,196.581l63.137,86.437,67.293-86.437,48.683,49.94L219.891,365.6l-.6.848a36.765,36.765,0,0,1-62.224-4.554L78.629,235.184Z" fill="#367cff"></path>
          <path d="M201.073,293.9a.675.675,0,0,0,.6-.982l-5.208-10.207a.676.676,0,0,0-1.2.615l5.209,10.206A.673.673,0,0,0,201.073,293.9Z" fill="#0c0c0c"></path>
          <g>
            <g>
              <path d="M416.477,74.917s8.423,30.78,17.744,40.673c26.836,28.481,40.146,63.954,23.8,87.223s-145.374,49.781-164.111,7.712c-15.774-35.416,1.083-43-.839-74.468-.87-14.24-1.421-44.358-1.421-44.358" fill="#0a0a0a"></path>
              <path id="sk" d="M315.634,187.1c.227-.03,2.75,41.838,51.388,38.188,33.672-2.523,45.678-38.247,46.45-38.247-3.631-.772-9.744-1.894-11.356-2.754-5.3-2.849-11.863-5.814-13.572-16.11-.985-5.935.686-36.3.172-42.3L337.03,137.412c.722,12.682,5.776,42.08-11.94,47.283C322.142,185.556,318.967,186.347,315.634,187.1Z" fill="#E98862"></path>
              <path id="sh" d="M336.305,172.681a37.414,37.414,0,0,0,1.555-8.022A85.569,85.569,0,0,0,337.522,146a56.673,56.673,0,0,0,28.566-12.515c.96,3.544,6.238,19.031,4.777,22.4C368.1,162.254,355.121,172.681,336.305,172.681Z" fill="#0c0c0c" opacity="1"></path>
              <path d="M347.346,164.91c20.362-2.128,44.576-15.369,44.521-43.05l-.049-24.977c-.055-27.681-14.638-50.093-40.7-50.041h0c-26.064.051-45.5,22.53-45.446,50.211l.022,11.058C305.714,118.732,311.017,168.707,347.346,164.91Z" fill="#E98862"></path>
              <path d="M332.3,129.392a.418.418,0,0,1-.05,0,28.565,28.565,0,0,1-3.163-.191c-1.571-.193-3.659-.609-3.662-1.993,0-1.578,4.284-18.6,4.773-20.54a.658.658,0,1,1,1.275.322c-1.83,7.251-4.734,19.153-4.732,20.215.257.443,2.885.876,5.506.872a.658.658,0,0,1,.053,1.313Z" fill="#0c0c0c" opacity="1"></path>
              <path d="M337.116,136.119a26.875,26.875,0,0,1,12.283,2.124.657.657,0,1,1-.5,1.218c-8.337-3.384-15.842-2.735-21.7,1.875a4.207,4.207,0,0,1-.369.272.658.658,0,0,1-.674-1.13c.047-.03.123-.092.229-.176A19.719,19.719,0,0,1,337.116,136.119Z" fill="#0c0c0c" opacity="1"></path>
              <path d="M413.547,101.434l-23.339.18C371.811,97.97,360.991,69.4,360.991,69.4s-16.874,24.184-69.339,22.3c0,0-3.332-72.028,74.827-65.851,25.2,1.992,47,22.834,51.032,55.493C420.334,104.228,413.547,101.434,413.547,101.434Z" fill="#0a0a0a"></path>
              <path d="M390.265,130.3c7.921-.015,14.325-8.5,14.309-16.422s-6.445-12.276-14.366-12.26l-4.07,5.315-2.683,23.381Z" fill="#E98862"></path>
              <path d="M323.152,94.775a15.069,15.069,0,0,0-7.908-.928,13.3,13.3,0,0,0-3.8,1.152,15.674,15.674,0,0,0-3.32,2.11.687.687,0,0,0,.819,1.1l.044-.031a14.191,14.191,0,0,1,3.08-1.765,11.663,11.663,0,0,1,3.4-.864,13.224,13.224,0,0,1,6.785,1.079l.069.033A1.032,1.032,0,1,0,323.2,94.8Z" fill="#0c0c0c"></path>
              <path d="M344.166,95.663a13.215,13.215,0,0,1,6.776-1.136,11.691,11.691,0,0,1,3.4.835,14.164,14.164,0,0,1,3.094,1.74l.043.029a.687.687,0,0,0,.811-1.109,15.667,15.667,0,0,0-3.338-2.082,13.281,13.281,0,0,0-3.807-1.12,15.053,15.053,0,0,0-7.9,1,1.032,1.032,0,1,0,.8,1.9l.04-.017Z" fill="#0c0c0c"></path>
              <path d="M390.105,101.338l.1-.668C359.68,95.88,361.3,66.509,361.322,66.213l-.673-.046C360.629,66.469,358.956,96.45,390.105,101.338Z" fill="#0c0c0c"></path>
            </g>
            <ellipse cx="352.586" cy="123.01" rx="6.115" ry="4.486" transform="translate(-8.875 29.231) rotate(-4.688)" fill="#0c0c0c" opacity="0.1"></ellipse>
            <path d="M316.27,124.905c.195,2.467-2.369,4.69-5.734,4.97a8.349,8.349,0,0,1-1.746-.039c-.736-2.839-1.307-5.6-1.743-8.171a7.7,7.7,0,0,1,2.76-.731C313.172,120.653,316.064,122.43,316.27,124.905Z" fill="#0c0c0c" opacity="0.1"></path>
          </g>
          <path d="M255.2,279.273c1.532,18,8.985,120.287,10.458,142.456h203c1.147-19.994,6.3-97.426,10.645-136.526,4.151-37.311,12.3-62.246,6.326-73.276C475.878,193.9,468.2,186.364,441.4,183.482a141.052,141.052,0,0,0-38.146,1.213s-1.413,28.594-35.117,30.185c-45.88,2.165-42.83-30.107-43.044-30.185-9.457-3.458-38.643-5.244-53.141,4.329C244.293,207.287,251.952,241.131,255.2,279.273Z" fill="#367cff"></path>
          <circle cx="316.721" cy="107.624" r="3.21" fill="#0c0c0c"></circle>
          <circle cx="348.206" cy="105.893" r="3.21" fill="#0c0c0c"></circle>
          <rect x="256.216" y="290.97" width="1.35" height="28.627" transform="translate(-16.885 15.046) rotate(-3.248)" fill="#0c0c0c"></rect>
        </g>
        <path d="M475.161,333.033a.787.787,0,0,0,.784-.723l2.138-26.417a.787.787,0,0,0-1.569-.127l-2.138,26.417a.787.787,0,0,0,.721.848C475.119,333.033,475.14,333.033,475.161,333.033Z" fill="#292a2e"></path>
      </g>
      <g>
        <path d="M250.549,545.4s-27.133-3.792-36.7,19.554-26.785,11.688-26.785,11.688L218.2,485.567l45.5,15.558Z" fill="#367cff"></path>
        <path id="l_1_bottom" d="M566.373,427.571c-21.8-17.436-45.375-16.257-116.587-15.584-25.651.209-139.471.078-197.588.352-17.74.084-45.87.658-60.907,1.826-37.884,2.942-48.545,9.654-51.436,21.8-.926,3.888-26.484,33.917,150.476,55.367H411.879C576.326,484.178,583.181,441.017,566.373,427.571Z" fill="#262626"></path>
        <path id="l_1_sh" d="M214.333,426.248c34.6-6.53,164.031,22.686,164.031,22.686s135.879-33.57,158.5-25.983C583.275,438.513,358.3,503.235,358.3,503.235S174.226,433.817,214.333,426.248Z" fill="#0a0a0a"></path>
        <path id="l_1_bottom-2" data-name="l_1_bottom" d="M238.546,497.634l4.079,50.956S475.749,519.261,543.476,509.2c15.628-2.321,47.135-16.25,37.537-53.624-8.408-32.74-14.805-38.485-71.2-30.429C459.761,432.3,238.546,497.634,238.546,497.634Z" fill="#262626"></path>
        <polygon id="l_1_sh-2" data-name="l_1_sh" points="240.986 523.916 242.625 548.59 358.512 534.64 240.986 523.916" fill="#0a0a0a"></polygon>
        <path d="M460.971,540.561s26.857-6.2,38.513,16.35,27.88,9.342,27.88,9.342l-39.271-88.52-44.226,19.621Z" fill="#367cff"></path>
        <path id="l_1_bottom-3" data-name="l_1_bottom" d="M474.284,480.28l-7.5,68.247S221.373,529.343,155.932,509.2c-15.1-4.647-39.324-17.874-30.387-55.411,7.634-32.063,26.812-38.94,76.861-31.79S474.284,480.28,474.284,480.28Z" fill="#262626"></path>
      </g>
    </g>
    <g>
      <g id="b_4_ha">
        <path d="M242.946,353.846l30.135-10.563-4.326-.3a5.524,5.524,0,0,1-5.033-5.617,5.323,5.323,0,0,1,5.893-5l53.314,5.666-1.385,17.133a26.8,26.8,0,0,1-18.7,23.414l-23.088,7.192a5.451,5.451,0,0,1-6.446-2.452,5.321,5.321,0,0,1,.837-6.252.459.459,0,0,1-.093-.662l-4.257,1.334a5.524,5.524,0,0,1-6.864-3.125,5.323,5.323,0,0,1,2.293-6.45.47.47,0,0,1-.131-.1l-1.749.548a5.45,5.45,0,0,1-6.446-2.452,5.326,5.326,0,0,1,1.931-7.13.448.448,0,0,1-.016-.108l-12.55,4.4a5.02,5.02,0,0,1-3.321-9.474Z" fill="#E98862"></path>
        <path id="b_4_ha_sh" d="M259.311,359.412a.493.493,0,0,0,.171-.03l12.139-4.414a.5.5,0,1,0-.342-.939l-12.139,4.414a.5.5,0,0,0,.171.969Z" fill="#0a0a0a" opacity="0.2"></path>
        <path id="b_4_ha_sh-2" data-name="b_4_ha_sh" d="M265.447,368.238a.485.485,0,0,0,.167-.029l9.568-3.395a.5.5,0,1,0-.334-.942l-9.568,3.395a.5.5,0,0,0,.167.971Z" fill="#0a0a0a" opacity="0.2"></path>
        <path id="b_4_ha_sh-3" data-name="b_4_ha_sh" d="M274.457,377.193a.509.509,0,0,0,.178-.033l4.481-1.709a.5.5,0,0,0-.356-.934l-4.481,1.709a.5.5,0,0,0,.178.967Z" fill="#0a0a0a" opacity="0.2"></path>
      </g>
      <path id="b_4_b" d="M300.594,391.143l186.838,30.975a37.5,37.5,0,0,0,41.038-43.5L489.278,222.892a37.5,37.5,0,0,0-73.961,12.443l29.906,107.357L309.459,324.146Z" fill="#367cff"></path>
      <g id="b_4_st">
        <path d="M469.577,346.183a.5.5,0,0,0,.074-.994L446.363,341.7a.493.493,0,0,0-.569.42.5.5,0,0,0,.42.568l23.288,3.487A.493.493,0,0,0,469.577,346.183Z" fill="#0c0c0c"></path>
      </g>
      <g id="b_4_st-2" data-name="b_4_st">
        <path d="M482.23,422.838a.5.5,0,0,0,.065-1L301.641,390.764l8.757-66,134.825,17.929a.5.5,0,0,0,.559-.579l-14.59-62.941a.493.493,0,0,0-.576-.411.5.5,0,0,0-.41.577l14.477,62.273L310.022,323.7a.5.5,0,0,0-.375.1.506.506,0,0,0-.188.34l-8.865,67a.5.5,0,0,0,.432.55l181.139,31.141A.482.482,0,0,0,482.23,422.838Z" fill="#0c0c0c"></path>
      </g>
    </g>
    <g>
      <path d="M307.708,406.739,264.859,275.022a11.53,11.53,0,0,0-10.964-7.963H79.325a11.529,11.529,0,0,0-10.964,15.1L111.21,413.872a11.531,11.531,0,0,0,10.964,7.963H296.745A11.529,11.529,0,0,0,307.708,406.739Z" fill="#292a2e"></path>
      <rect x="267.482" y="411.154" width="127.402" height="10.68" rx="5.272" fill="#292a2e"></rect>
      <g>
        <rect x="257.841" y="410.346" width="137.044" height="11.489" rx="5.744" fill="#fff"></rect>
        <path d="M389.14,422.835H263.585a6.745,6.745,0,0,1,0-13.489H389.14a6.745,6.745,0,0,1,0,13.489ZM263.585,411.346a4.745,4.745,0,0,0,0,9.489H389.14a4.745,4.745,0,0,0,0-9.489Z" fill="#292a2e"></path>
      </g>
      <g>
        <path d="M307.708,406.739,264.859,275.022a11.53,11.53,0,0,0-10.964-7.963H79.325a11.529,11.529,0,0,0-10.964,15.1L111.21,413.872a11.531,11.531,0,0,0,10.964,7.963H296.745A11.529,11.529,0,0,0,307.708,406.739Z" fill="#fff"></path>
        <path d="M296.745,422.835H122.174a12.5,12.5,0,0,1-11.914-8.653L67.41,282.465a12.529,12.529,0,0,1,11.915-16.4H253.9a12.5,12.5,0,0,1,11.915,8.652L308.66,406.43a12.531,12.531,0,0,1-11.915,16.4ZM79.325,268.06a10.528,10.528,0,0,0-10.013,13.786l42.85,131.717a10.5,10.5,0,0,0,10.012,7.272H296.745a10.529,10.529,0,0,0,10.012-13.786L263.908,275.331A10.5,10.5,0,0,0,253.9,268.06Z" fill="#292a2e"></path>
      </g>
      <g>
        <circle cx="183.439" cy="346.183" r="18.309" fill="#fff"></circle>
        <path d="M183.439,365.492a19.309,19.309,0,1,1,19.309-19.308A19.331,19.331,0,0,1,183.439,365.492Zm0-36.618a17.309,17.309,0,1,0,17.309,17.31A17.329,17.329,0,0,0,183.439,328.874Z" fill="#292a2e"></path>
      </g>
    </g>
    <g>
      <g>
        <path d="M10.412,42.517a103.8,103.8,0,0,1,146.64,0,6.1,6.1,0,1,0,8.627-8.627,116.017,116.017,0,0,0-163.892,0,6.1,6.1,0,1,0,8.625,8.627Z" fill="#0cbc8b"></path>
        <path d="M36.289,68.394a67.173,67.173,0,0,1,94.885,0,6.1,6.1,0,1,0,8.626-8.626,79.384,79.384,0,0,0-112.137,0,6.1,6.1,0,1,0,8.626,8.626Z" fill="#0cbc8b"></path>
        <path d="M62.167,94.272a30.534,30.534,0,0,1,43.13,0,6.1,6.1,0,0,0,8.626-8.626,42.744,42.744,0,0,0-60.381,0,6.1,6.1,0,0,0,8.625,8.626Z" fill="#0cbc8b"></path>
        <circle cx="83.733" cy="120.43" r="12.77" fill="#0cbc8b"></circle>
      </g>
      <g>
        <circle cx="36.846" cy="109.103" r="30.941" fill="#262626"></circle>
        <g>
          <line x1="21.67" y1="93.927" x2="52.022" y2="124.279" fill="#fff"></line>
          <path d="M52.022,125.136a.852.852,0,0,1-.606-.251L21.064,94.534a.858.858,0,0,1,1.213-1.213l30.352,30.352a.857.857,0,0,1-.607,1.463Z" fill="#fff"></path>
        </g>
        <g>
          <line x1="52.022" y1="93.927" x2="21.67" y2="124.279" fill="#fff"></line>
          <path d="M21.67,125.136a.857.857,0,0,1-.606-1.463L51.416,93.321a.858.858,0,0,1,1.213,1.213L22.277,124.885A.854.854,0,0,1,21.67,125.136Z" fill="#fff"></path>
        </g>
      </g>
    </g>
  </g>
</svg>