<svg id="Layer_1" data-name="Layer 1" xmlns="http://www.w3.org/2000/svg" viewBox="0 0 856.495 519.821">
  <g id="Layer_8" data-name="Layer 8">
    <path d="M61.571,519.414A58.482,58.482,0,0,1,6.5,480.758C-11.441,430.784,2.953,295.341,111.284,227.4,225.854,155.55,276.015,12.914,385.293,1.189c171.2-18.36,219.047,181.243,295.862,227.692C747.522,269.012,843.634,329.19,856.2,454.964a58.588,58.588,0,0,1-52.436,64.153q-2.906.293-5.83.294Z" fill="#f3f5fd"></path>
  </g>
  <path d="M452.043,180.853c.49-.8-.155-1.817-2.759-2.861-5.385-2.16-13.314.416-13.314.416l-1.714,4.51-.063,9.526s13.725,3.812,16.881,1.82c2.092-1.32,2.91-11.623,2.91-11.623C454.052,181.918,453.285,181.331,452.043,180.853Z" fill="#E98862"></path>
  <path d="M452.043,180.853c.49-.8-.155-1.817-2.759-2.861-5.385-2.16-13.314.416-13.314.416l-1.714,4.51-.063,9.526s13.725,3.812,16.881,1.82c2.092-1.32,2.91-11.623,2.91-11.623C454.052,181.918,453.285,181.331,452.043,180.853Z" opacity="0.07"></path>
  <g>
    <rect x="446.552" y="98.33" width="3.254" height="137.204" fill="#00D176"></rect>
    <path d="M449.806,98.05s35.491-14.131,60.106,10.484,55.155,11.54,55.155,11.54-22.336,28.462-64.272,24.187-50.989,13.181-50.989,13.181" fill="#00D176"></path>
  </g>
  <polygon points="187.752 519.414 447.574 227.426 754.357 519.414 187.752 519.414" fill="#dee8f5"></polygon>
  <path d="M590.862,363.806l-10.09,27.89-43.83-34.36-33.911,35.327-42.779-47.847-34.96,43.567-35.66-25.567-50.12,50.43s-7.4-25.65-14.25-48.36l122.31-137.46Z" fill="#c1d8ed"></path>
  <path d="M213.341,234.669l-11.649-2.132s-8.987,12.407-2.084,25.88c2.288,4.465,7.377,1.958,7.5.226.406-5.723.192-11.339,2.759-15.548.63,2.156,1.667,5.051,2.632,4.792C215.037,247.206,213.341,234.669,213.341,234.669Z" fill="#E98862"></path>
  <path d="M360.035,404.517l-21-.068s.07-21.686.07-23.606h21C360.105,382.769,360.035,404.517,360.035,404.517Z" fill="#E98862"></path>
  <path d="M385.539,413.063a4.108,4.108,0,0,0,4.076-4.428h0a4.108,4.108,0,0,0-2.658-3.529l-24.443-8.186a3.457,3.457,0,0,0-2.872.319,19.112,19.112,0,0,1-11.468,3.4,17.031,17.031,0,0,1-8.82-3.222,1.547,1.547,0,0,0-2.528,1.2v11.952a2.678,2.678,0,0,0,2.689,2.678Z" fill="#c1d8ed"></path>
  <path d="M255.521,378.348c-1.8.688-19.371,5.127-19.371,5.127" fill="none" stroke="#e98862" stroke-miterlimit="10" stroke-width="21"></path>
  <path d="M242.644,511.088l-21-.068s.07-21.685.07-23.6h21C242.714,489.341,242.644,511.088,242.644,511.088Z" fill="#E98862"></path>
  <path d="M374.858,250.862c-19.62-7.166-41.287-15.135-61.981-23.025l-78.1-18.5c-6,6-1.306,120.012-.549,149.949L216.381,497.5l36.57,5.62,24.874-139.4a20.65,20.65,0,0,0,.254-3.485l1.138-59.447c.258-9.581.482-22.211.8-34.292,21.931,5.479,45.748,10.981,68.2,16.1L332.543,389l36.605,5.392,18.163-123.3A18.5,18.5,0,0,0,374.858,250.862Z" fill="#262626"></path>
  <path d="M370.934,168.823,325.885,119.9l-.035.033c-2.792-3.864-7.433-6.708-14.684-8.123-.618-.124-1.614-.3-2.9-.508-1.078,5.4-34.754.3-34.629-5.358-9.513-1.425-17.755.314-22.956,4.151a20.131,20.131,0,0,0-5.988,6.949l-.126-.076-32.163,53.871a10.944,10.944,0,0,0-1.2,2.89l-15.3,59.887,21.126,5.4,14.906-58.355,12.8-21.438a58.367,58.367,0,0,1,0,14.287c-3.136,20.775-13.933,28.662-14.85,39.426-1.44,16.914,80.566,25.245,86.145,16.348,5.752-9.164-2.006-16.525,3.223-48.563,1.464-9,4.611-18.829,7.021-28.206l31.507,34.214a10.9,10.9,0,0,0,7.136,3.481l71.286,5.8,1.769-21.732Z" fill="#225EDD"></path>
  <path d="M308.27,111.305c-1.078,5.4-5.242,12.952-14.46,12.178-12.283-1.034-20.294-11.881-20.169-17.536l.03,0C285.645,107.759,301.305,110.142,308.27,111.305Z" fill="#E98862"></path>
  <path d="M268.148,519.635a4.108,4.108,0,0,0,4.076-4.427h0a4.107,4.107,0,0,0-2.659-3.53l-24.442-8.186a3.461,3.461,0,0,0-2.872.319,19.1,19.1,0,0,1-11.468,3.4,17.038,17.038,0,0,1-8.821-3.222,1.546,1.546,0,0,0-2.527,1.2v11.952a2.678,2.678,0,0,0,2.689,2.678Z" fill="#c1d8ed"></path>
  <path d="M451.071,194.267a3.161,3.161,0,0,1-.907.361c-1.669.109-5.624-1.439-6.122-2.664-.811-2,.779-8.574,2.058-10.864,1.2-2.142,5.468-.58,6.032-.392a.277.277,0,0,0,.053.022c1.155.5,1.871,1.12,1.8,1.915C453.982,182.645,453.168,192.943,451.071,194.267Z" fill="#E98862"></path>
  <path d="M173.405,519.414H145.776c-4.8-6.317-13.222-19.059-7.78-24.5,2.475-2.47,5.2-.12,7.729,4.093-.869-8.255,0-16.144,5.745-18.448,5.231-2.092,7.569,4.23,8.472,12.714,2.573-4.825,5.963-8.221,10.382-7.952,6.322.377,4.8,8.809,1.1,18.145,2.807-2.133,5.74-3.184,8.6-2.247C186,503.179,180.414,511.577,173.405,519.414Z" fill="#8ddbe0"></path>
  <path d="M741.671,519.414H703.364c-6.658-8.758-18.333-26.425-10.787-33.971,3.432-3.424,7.2-.166,10.716,5.675-1.205-11.445,0-22.383,7.965-25.577,7.253-2.9,10.494,5.865,11.747,17.627,3.566-6.689,8.267-11.4,14.394-11.025,8.766.523,6.649,12.214,1.521,25.157,3.892-2.956,7.958-4.414,11.921-3.115C759.14,496.9,751.388,508.548,741.671,519.414Z" fill="#8ddbe0"></path>
  <g>
    <path d="M275.222,109.1s8.492-2.117,11.887-22.97l16.22.972s-6.288,17.891.113,25.654Z" fill="#E98862"></path>
    <g opacity="0.15">
      <path d="M301.215,108.141,290.778,95.09,300.922,97.5A28.745,28.745,0,0,0,301.215,108.141Z"></path>
    </g>
    <path d="M280.277,76.026c-.465,6.467,1.462,13.178,6.435,16.538a40.49,40.49,0,0,0,18.158,7.2c17.32,2.82,23.538-36.611,17.339-46.108s-31.029-10.617-37.017,1.209C282.1,60.981,280.72,69.871,280.277,76.026Z" fill="#E98862"></path>
    <path d="M328.865,70.3s3.48-28.258-28.323-29a24.557,24.557,0,0,0-14.375,4.934,14.015,14.015,0,1,0-10.089,16.506c-.07.4-.139.8-.195,1.213-2.369,17.446,9.656,29.454,9.656,29.454s4.508-1.932,9.967-29.709C301.908,65.881,316.679,70.4,328.865,70.3Z" fill="#0f1011"></path>
    <g>
      <circle cx="306.093" cy="75.868" r="1.449" fill="#0f1011"></circle>
      <circle cx="317.414" cy="77.711" r="1.449" fill="#0f1011"></circle>
      <path d="M316.786,74.317a.739.739,0,0,0,.087.029l3.714.971A.681.681,0,1,0,320.931,74l-3.714-.97a.681.681,0,0,0-.431,1.288Z" fill="#0f1011"></path>
      <path d="M303.6,72.537a.673.673,0,0,0,.254.05l3.893.028a.681.681,0,0,0,.009-1.362l-3.893-.027a.681.681,0,0,0-.263,1.311Z" fill="#0f1011"></path>
      <path d="M304,87.106s5.056,1.835,9.01,1.466c0,0-.877,3.413-5.069,2.73S304,87.106,304,87.106Z" fill="#fff"></path>
    </g>
    <path d="M297.924,77.5A6.143,6.143,0,0,1,285.8,75.521a6.041,6.041,0,0,1,7.05-5.076C297.131,71.36,298.469,74.146,297.924,77.5Z" fill="#E98862"></path>
    <g opacity="0.15">
      <path d="M310.4,85.218a.5.5,0,0,1,.093-.985l3.078-.169-.895-4.951a.5.5,0,0,1,.984-.179l1,5.509a.5.5,0,0,1-.465.589l-3.643.2A.552.552,0,0,1,310.4,85.218Z"></path>
    </g>
  </g>
</svg>