<svg id="Layer_1" data-name="Layer 1" xmlns="http://www.w3.org/2000/svg" viewBox="0 0 853.903 545.213">
  <path d="M541.3,360.147a41.154,41.154,0,0,1-8.072-.859c-18.457-3.7-30.952-20.6-36.135-48.858a182.676,182.676,0,0,1-2.29-41.881l1,.08c-.065.809-6.036,80.924,37.626,89.678,21.04,4.218,28.188-7.963,35.1-19.744,7.514-12.813,14.612-24.914,38.718-13.01l-.443.9c-23.27-11.493-29.826-.32-37.412,12.619C563.541,349.033,557.024,360.147,541.3,360.147Z" fill="#c1d8ed"></path>
  <path d="M305.013,365.421c-4.229,0-8.924-1.787-14.037-5.353-26.008-18.14-44.574-1.082-44.758-.907l-.687-.727c.189-.18,19.324-17.8,46.017.814,7.747,5.4,14.43,6.574,19.87,3.486,16.26-9.234,19.115-53.748,16.365-92.329l1-.071c2.77,38.884-.207,83.806-16.87,93.269A13.741,13.741,0,0,1,305.013,365.421Z" fill="#c1d8ed"></path>
  <g>
    <rect x="218.797" width="392.932" height="287.059" rx="12.777" fill="#c1d8ed"></rect>
    <rect x="211.87" width="392.932" height="287.059" rx="12.777" fill="#dee8f5"></rect>
  </g>
  <rect x="225.134" y="12.204" width="366.924" height="262.253" rx="8.504" fill="#fff"></rect>
  <g>
    <g>
      <g>
        <g>
          <path d="M738.7,291.665c-.075-1.211-.11-2.521-.093-3.931.013-1.81.116-3.789.322-5.947l-15.942-3.163a57.036,57.036,0,0,1-.464,11.885c-.012.1-.033.2-.044.3v.01c-.768,4.792-2.408,9.752-5.821,12.4l25.008.3C740.362,301.206,739.067,297.48,738.7,291.665Z" fill="#E98862"></path>
          <path d="M748.088,273.729c-1.184,6.374-4.743,12.381-10.4,14.376-6.718,2.369-11.675,2.475-19.387,2.381-10.525-.127-10.044-11.1-10.205-22.163-.163-11.109.865-23.01,5.071-26.829,8.4-7.624,32.705-2.437,35.513,10.518C750.129,258.712,749.214,267.661,748.088,273.729Z" fill="#E98862"></path>
        </g>
        <path d="M701.918,241.234c1.838-6.435,7.364-9.522,16.409-7.041,6.433,1.765,7.268.259,12.765-2.306,3.148-1.468,13.406-.656,15.865,6.325,2.635,7.478,11.134,1.55,11.77,13.689.532,10.16-3.076,24.631-10.071,32.714-2.421,2.8-6.357,6.139-9.382,6.941-2.973.788-15.773-.086-17.009-.84-6.073-3.707-5.243-20.356-4.143-31.029.18-1.756-.108-4.682-4.62-4.736-3.1-.038-4.816-.132-6.4-1.306C707.1,253.645,700.078,247.669,701.918,241.234Z" fill="#0f1011"></path>
        <path d="M711.93,270.466a6.143,6.143,0,1,0,12.231,1.152,6.04,6.04,0,0,0-5.539-6.691C714.246,264.731,712.248,267.089,711.93,270.466Z" fill="#E98862"></path>
      </g>
      <g>
        <path d="M718.729,269.776a2,2,0,0,1-1.533-1.386c-.25-.83-2.892-20.362,4.755-32.13A14.913,14.913,0,0,1,733.51,229.1a2,2,0,0,1,2.2,1.783c.114,1.1-.684,1.082-1.783,1.2-5.332.551-6.14,2.646-8.642,6.4-6.748,10.13-4.31,28.573-4.254,28.758a2,2,0,0,1-2.3,2.54Z" fill="#c1d8ed"></path>
        <circle cx="721.561" cy="268.589" r="9.584" fill="#c1d8ed"></circle>
        <circle cx="718.106" cy="268.37" r="9.584" fill="#dee8f5"></circle>
        <path d="M707.513,282.4q-2.627,0-6-.235a1.5,1.5,0,0,1-1.392-1.6,1.466,1.466,0,0,1,1.6-1.392c4.977.346,10.958.246,12.2-.44a56.309,56.309,0,0,0,1.559-5.646,1.5,1.5,0,1,1,2.919.686,40.533,40.533,0,0,1-1.962,6.621C715.639,281.728,712.643,282.4,707.513,282.4Zm6.5-3.721Z" fill="#dee8f5"></path>
        <rect x="697.597" y="278.355" width="6.721" height="4.69" rx="2.345" fill="#c1d8ed"></rect>
      </g>
    </g>
    <g>
      <path d="M513.913,536.223l-16.83-8.78s16.26-21.239,17.429-22.769L528.2,517.426C527.032,518.952,513.913,536.222,513.913,536.223Z" fill="#E98862"></path>
      <path d="M472.99,542.919a4.108,4.108,0,0,1-4.078-4.426h0a4.11,4.11,0,0,1,2.658-3.53l24.44-8.193a3.467,3.467,0,0,1,2.873.319,19.1,19.1,0,0,0,11.468,3.4,17.021,17.021,0,0,0,8.82-3.224,1.547,1.547,0,0,1,2.528,1.2l0,11.952a2.678,2.678,0,0,1-2.688,2.678Z" fill="#c1d8ed"></path>
      <rect x="583.127" y="512.961" width="21.071" height="20.999" transform="translate(-94.542 914.384) rotate(-71.002)" fill="#E98862"></rect>
      <path d="M556.22,542.941a4.108,4.108,0,0,1-4.077-4.427h0a4.11,4.11,0,0,1,2.659-3.529l24.443-8.187a3.461,3.461,0,0,1,2.872.32,19.112,19.112,0,0,0,11.468,3.4,17.035,17.035,0,0,0,8.82-3.222,1.547,1.547,0,0,1,2.528,1.2V540.45a2.678,2.678,0,0,1-2.689,2.678Z" fill="#c1d8ed"></path>
      <path d="M626.053,384.94h0l-.3-.051A18.5,18.5,0,0,0,604.7,399.007l-28,122.221,36.066,8.262,23.793-103.86c.25.065.5.128.752.192q8.968,2.3,17.889,4.708c11.877,3.211,23.689,13.563,35.147,17.167L701.5,403.884C688.765,401.369,632.433,385.77,626.053,384.94Z" fill="#262626"></path>
      <path d="M626.053,384.94h0l-.3-.051A18.5,18.5,0,0,0,604.7,399.007l-28,122.221,36.066,8.262,23.793-103.86c.25.065.5.128.752.192q8.968,2.3,17.889,4.708c11.877,3.211,23.689,13.563,35.147,17.167L701.5,403.884C688.765,401.369,632.433,385.77,626.053,384.94Z" opacity="0.07"></path>
      <path d="M750.93,437.347l2.915-27.226L675.8,403.508l-2.073,5.443c-20.128-4.757-40.38-15.406-60.75-18.538a19.923,19.923,0,0,0-18.5,7.124L495.3,520.129l32.474,16.094L617.863,432.9c15.338,3.13,93.715,34.542,114.419,24.363C743.426,451.783,750.438,441.939,750.93,437.347Z" fill="#262626"></path>
    </g>
    <g>
      <path d="M649.8,332.762c-2.594-1.466-11.474-8.129-12.869-5.9-.381.609.349,1.852,1.538,3.278-6.746-3.361-10.38-4.182-12.213-.937-2.123,3.757-3.791,7.386,6.934,13.446,8.111,4.583,15.149-.6,13.395-5.9Z" fill="#E98862"></path>
      <g>
        <path d="M599.768,356.283c-1.886-1.421-9.774-10.685-12.1-15.864s-.034-15.106,13.232-13.963,8.4-8.035,15.7-10.388c8.882-2.865,20.78,8.459,23.148,13.655,1.1,2.424.3,5.6-3.616,5.38-4.486-.254-13.123-3.976-14.769-4.117-3.084-.266-11.057,4.747-11.255,7.044a97.4,97.4,0,0,0-.171,13.734C610.337,356.623,604.788,360.066,599.768,356.283Z" fill="#dee8f5"></path>
        <ellipse cx="599.121" cy="332.762" rx="4.435" ry="5.941" transform="translate(216.172 901.116) rotate(-85.077)" fill="#c1d8ed"></ellipse>
        <ellipse cx="621.228" cy="321.593" rx="3.923" ry="5.254" transform="translate(247.51 912.932) rotate(-85.077)" fill="#c1d8ed"></ellipse>
      </g>
      <path d="M680.142,360.543c3.072-27.564-6.772-66.83,26.326-64.182,4.006.32,23.454,2.686,37.69,4.441,9.564,1.179,17.053,5.082,21.029,10.175,13.705,17.56-8.767,41.833-11.337,62.68s5.7,31.351,3.695,41.963c-3.165,16.683-84.385,2.636-87.371-7.43C667.1,397.81,676.551,392.813,680.142,360.543Z" fill="#225EDD"></path>
      <path d="M707.229,375.814a10.886,10.886,0,0,1-5.191-1.317l-68.522-27.125L643.9,328.2l62.032,23.609,45.8-38.084,13.941,16.766-51.471,42.8A10.9,10.9,0,0,1,707.229,375.814Z" fill="#225EDD"></path>
      <path d="M616.827,350l2.386-3.3c-2.594-1.466-11.636-7.371-13.03-5.143-.382.609.349,1.852,1.537,3.278-6.745-3.361-10.38-4.181-12.213-.937-2.123,3.757-3.79,7.387,6.934,13.446S623.741,354.675,616.827,350Z" fill="#E98862"></path>
      <path d="M662.4,392.283a10.5,10.5,0,0,1-6.477-2.236l-51.064-30.021,12.955-16.53,40.671,21.877,27.928-59.685,19.021,8.9-33.523,71.645a10.512,10.512,0,0,1-9.511,6.05Z" fill="#225EDD"></path>
    </g>
  </g>
  <path d="M777.774,360.354c24.885.089,64.4,26.046,73.661,82.089,11.739,71.056-18.783,99.188-83.348,100.685-46.338,1.074-98.535,4.176-124.415-.143-62.863-11.76-54.034-96.423-11.682-101.284C768.808,441.7,691.784,360.048,777.774,360.354Z" fill="#c1d8ed"></path>
  <g>
    <g>
      <g>
        <path d="M91.734,315.336s7.539-4.445,4.862-25.4l15.826-3.682s-.939,18.94,7.406,24.562Z" fill="#E98862"></path>
        <path d="M87.171,282.187c1.394,6.332,5.15,12.218,10.873,14.025a40.512,40.512,0,0,0,19.456,1.737c17.407-2.224,12.152-41.8,3.508-49.136S88.24,247.461,85.863,260.5C84.634,267.247,85.844,276.161,87.171,282.187Z" fill="#E98862"></path>
        <path d="M120.989,262.206c-2.907,31.4-8.132,40.364-24.694,36.267-3.8-.939-13.565-8.428-16.771-26.609a25.262,25.262,0,0,1,17.2-28.731c30.7-8.339,35.4,19.742,35.4,19.742-15.342,4.693-37.274,2.979-37.274,2.979" fill="#0f1011"></path>
        <path d="M123.926,279.352a6.143,6.143,0,1,1-12.187,1.557,6.041,6.041,0,0,1,5.315-6.871C121.421,273.7,123.5,275.987,123.926,279.352Z" fill="#E98862"></path>
      </g>
      <g>
        <path d="M115.76,280.14a2,2,0,0,0,1.533-1.386c.249-.83,2.892-20.362-4.755-32.13a14.916,14.916,0,0,0-11.559-7.164,2,2,0,0,0-2.2,1.784c-.113,1.1.685,1.082,1.784,1.2,5.332.551,6.139,2.646,8.642,6.4,6.748,10.13,4.309,28.573,4.254,28.758a2,2,0,0,0,2.3,2.54Z" fill="#c1d8ed"></path>
        <circle cx="112.928" cy="278.953" r="9.584" fill="#c1d8ed"></circle>
        <circle cx="116.383" cy="278.733" r="9.584" fill="#dee8f5"></circle>
        <path d="M126.978,292.762c-5.131,0-8.128-.671-8.935-2.006a40.628,40.628,0,0,1-1.963-6.621,1.5,1.5,0,0,1,2.92-.685,55.841,55.841,0,0,0,1.561,5.645c1.253.689,7.228.786,12.2.441a1.5,1.5,0,1,1,.209,2.992Q129.606,292.762,126.978,292.762Z" fill="#dee8f5"></path>
        <rect x="130.171" y="288.719" width="6.721" height="4.69" rx="2.345" transform="translate(267.063 582.128) rotate(-180)" fill="#c1d8ed"></rect>
      </g>
    </g>
    <g>
      <g>
        <path d="M366.9,524.029l-17.875,11.022s-16.13-14.814-17.144-16.446l17.84-11.08C350.739,509.162,366.9,524.029,366.9,524.029Z" fill="#E98862"></path>
        <path d="M388.914,510.664a4.108,4.108,0,0,0-.218-6.014h0a4.11,4.11,0,0,0-4.372-.637L361.2,515.394a3.465,3.465,0,0,0-1.816,2.248,19.111,19.111,0,0,1-5.756,10.486,17.028,17.028,0,0,1-8.535,3.917,1.546,1.546,0,0,0-.95,2.632l8.409,8.492a2.678,2.678,0,0,0,3.795.011Z" fill="#c1d8ed"></path>
      </g>
      <path d="M309.054,529.65,289.6,537.56c-2.994-7.362-6.65-16.173-7.337-17.57.044.089.084.161.114.217l18.383-10.153C301.065,510.605,301.99,512.282,309.054,529.65Z" fill="#E98862"></path>
      <path d="M332.584,542.31a4.109,4.109,0,0,0,4.134-4.374h0a4.108,4.108,0,0,0-2.613-3.563l-24.334-8.5a3.461,3.461,0,0,0-2.876.283,19.107,19.107,0,0,1-11.511,3.251,17.036,17.036,0,0,1-8.778-3.336,1.547,1.547,0,0,0-2.543,1.168l-.155,11.951a2.679,2.679,0,0,0,2.654,2.713Z" fill="#c1d8ed"></path>
      <path d="M361.716,505.008c-5.174-2.259-112.86-105.148-117.309-98.468-33.658-.7-67.373-1.556-100.732,4.783l11.156,43.813c26.927-7.43,55.662-9.217,83.567-11.256L338.66,533.946Z" fill="#262626"></path>
      <path d="M361.716,505.008c-5.174-2.259-112.86-105.148-117.309-98.468-33.658-.7-67.373-1.556-100.732,4.783l11.156,43.813c26.927-7.43,55.662-9.217,83.567-11.256L338.66,533.946Z" opacity="0.07"></path>
      <path d="M314.056,518.559,258.914,414.23a19.973,19.973,0,0,0-20.591-10.391c-22.57,3.475-44.534,7.29-66.876,12.547l-2.071-5.439L91.33,417.561l2.915,27.226c1.2,11.229,19.358,27.7,35.769,25.032,5.222-1.24,11.337-1.107,16.25-2.406,28.441-6.671,55.524-15.467,84.311-20.588l51.049,89.544Z" fill="#262626"></path>
    </g>
    <g>
      <path d="M227.415,356.836c-1.1-3.56-4.827-3.532-12.133-1.682,1.465-1.141,2.443-2.2,2.2-2.876-.889-2.474-10.983,2.147-13.83,3.028l2.293,4.58c-2.84,4.806,2.934,11.367,11.834,8.614C229.547,364.86,228.69,360.958,227.415,356.836Z" fill="#E98862"></path>
      <g>
        <path d="M247.539,388.93c2.144-.987,11.823-8.361,15.2-12.926s3.247-14.753-9.959-16.458-6.5-9.638-13.129-13.49c-8.07-4.688-22.1,3.846-25.523,8.42-1.595,2.133-1.489,5.41,2.388,6.026,4.438.7,13.669-1.094,15.308-.882,3.07.4,9.794,6.991,9.5,9.277a97.442,97.442,0,0,1-2.754,13.456C237.14,387.015,241.83,391.559,247.539,388.93Z" fill="#00D176"></path>
        <ellipse cx="253.174" cy="366.086" rx="4.435" ry="5.941" transform="translate(-142.319 570.294) rotate(-82.643)" fill="#fff" opacity="0.33"></ellipse>
        <ellipse cx="233.948" cy="350.47" rx="3.923" ry="5.254" transform="translate(-143.595 537.611) rotate(-82.643)" fill="#fff" opacity="0.33"></ellipse>
      </g>
      <path d="M160.4,368.785c-5.426-27.2,1.012-67.164-31.737-61.686-3.964.663-23.137,4.69-37.169,7.66-9.428,2-16.555,6.526-20.079,11.942-12.148,18.671,12.324,40.926,16.673,61.475S85.1,419.9,88.007,430.3c4.586,16.35,84.3-4.615,86.411-14.9C176.589,404.8,166.746,400.629,160.4,368.785Z" fill="#225EDD"></path>
      <path d="M131.144,382.363a10.905,10.905,0,0,1-5.969-1.779L72.861,346.358,84.8,328.112,133.85,360.2l78.138-10.123,2.342,21.678L132.315,382.3A10.952,10.952,0,0,1,131.144,382.363Z" fill="#225EDD"></path>
      <path d="M254.7,378.98c-1.1-3.56-5.185-4.779-12.491-2.93,1.465-1.14,2.443-2.2,2.2-2.876-.889-2.474-10.979,1.373-13.826,2.254l1.629,3.731c-7.75,3.1-1.938,13.414,12.494,10.237C253.174,387.531,255.971,383.1,254.7,378.98Z" fill="#E98862"></path>
      <path d="M179.9,398.925a10.5,10.5,0,0,1-9.091-5.25l-39.548-68.5,18.188-10.5,36.115,62.561,50.477-5.615,2.322,20.871-57.3,6.374A10.866,10.866,0,0,1,179.9,398.925Z" fill="#225EDD"></path>
    </g>
    <path d="M59.64,277.976c-.449-14.833,3.025-23.785,7.912-28.509,4.821-4.661,20.207-8,26.508,10.449,4.111,12.037,2.7,16.156,4.232,35.111s6,18.976,6.654,36.411c.7,18.538-6.992,32.937-26.855,32.611-16.218-.267-26.447-8.166-27.766-24.471C48.432,316.178,60.518,307.045,59.64,277.976Z" fill="#0f1011"></path>
  </g>
  <path d="M79.14,372.738c-24.884.089-67.958,18.662-77.217,74.7-11.739,71.056,32.038,97.77,83.348,95.685,46.311-1.882,98.535,3.176,124.415-1.143,62.862-11.76,43.488-89.2,11.682-95.284C84.549,446.7,165.13,372.432,79.14,372.738Z" fill="#c1d8ed"></path>
  <path d="M233.948,22.573V263.915H583.424V22.573Z" fill="#f3f5fd"></path>
  <circle cx="319.289" cy="106.696" r="65.123" fill="#dee8f5"></circle>
  <g>
    <rect x="256.817" y="191.834" width="124.946" height="7.043" fill="#dee8f5"></rect>
    <rect x="435.61" y="191.834" width="124.946" height="7.043" fill="#dee8f5"></rect>
    <rect x="256.817" y="191.834" width="104.899" height="7.043" fill="#00D176"></rect>
    <rect x="435.61" y="191.834" width="69.151" height="7.043" fill="#262626"></rect>
    <rect x="256.817" y="210.46" width="124.946" height="7.043" fill="#dee8f5"></rect>
    <rect x="435.61" y="210.46" width="124.946" height="7.043" fill="#dee8f5"></rect>
    <rect x="256.817" y="210.46" width="62.473" height="7.043" fill="#00D176"></rect>
    <rect x="435.61" y="210.46" width="103.195" height="7.043" fill="#262626"></rect>
    <rect x="256.817" y="230.212" width="124.946" height="7.043" fill="#dee8f5"></rect>
    <rect x="435.61" y="230.212" width="124.946" height="7.043" fill="#dee8f5"></rect>
    <rect x="256.817" y="230.212" width="110.086" height="7.043" fill="#00D176"></rect>
    <rect x="435.61" y="230.212" width="79.195" height="7.043" fill="#262626"></rect>
  </g>
  <circle cx="498.083" cy="106.696" r="65.123" fill="#dee8f5"></circle>
  <g>
    <path d="M404.453,96.312h6.485l-7.028,21.451h-6.822l-7-21.451H396.6l2.92,10.872a33.135,33.135,0,0,1,1,5.047q.1-1.026.411-2.567t.543-2.421Z" fill="#c1d8ed"></path>
    <path d="M427.283,111.248a6.331,6.331,0,0,1-1.013,3.544,6.634,6.634,0,0,1-2.92,2.406,10.822,10.822,0,0,1-4.474.858,18.061,18.061,0,0,1-3.595-.3,13.3,13.3,0,0,1-3.022-1.049v-5.164a17.2,17.2,0,0,0,3.448,1.327,12.8,12.8,0,0,0,3.286.477,3.2,3.2,0,0,0,1.893-.447,1.376,1.376,0,0,0,.6-1.152,1.263,1.263,0,0,0-.242-.77,2.812,2.812,0,0,0-.777-.668q-.536-.337-2.854-1.379a13.635,13.635,0,0,1-3.147-1.849,5.674,5.674,0,0,1-1.556-2.053,6.83,6.83,0,0,1-.506-2.744,5.5,5.5,0,0,1,2.157-4.622A9.508,9.508,0,0,1,420.49,96a16.638,16.638,0,0,1,6.793,1.541l-1.775,4.475a12.86,12.86,0,0,0-5.195-1.379,2.706,2.706,0,0,0-1.643.4,1.2,1.2,0,0,0-.513.983,1.419,1.419,0,0,0,.653,1.13,24.9,24.9,0,0,0,3.543,1.819,9.807,9.807,0,0,1,3.851,2.677A5.817,5.817,0,0,1,427.283,111.248Z" fill="#c1d8ed"></path>
  </g>
  <g>
    <path d="M512.269,74.931H482.824A13.513,13.513,0,0,0,469.31,88.445V103.23h3.539v-11.6a10.8,10.8,0,0,1,10.807-10.806l21.644.012a6.567,6.567,0,0,1,6.562,6.568v9.621a4.381,4.381,0,0,0,4.382,4.381h2.292a4.376,4.376,0,0,0,3.763-2.145v3.968h3.484V88.445A13.513,13.513,0,0,0,512.269,74.931Z" fill="#0f1011"></path>
    <path d="M522.3,91.631v11.6h-49.45v-11.6a10.8,10.8,0,0,1,10.807-10.806h27.836A10.8,10.8,0,0,1,522.3,91.631Z" fill="#0f1011"></path>
    <path d="M529.939,102.357a8.635,8.635,0,0,0-7.64-8.575V91.631a10.806,10.806,0,0,0-10.806-10.806H483.654a10.806,10.806,0,0,0-10.806,10.806v2.335a8.627,8.627,0,0,0,0,16.782v2.335a10.806,10.806,0,0,0,10.806,10.806h27.839A10.806,10.806,0,0,0,522.3,113.083v-2.151A8.634,8.634,0,0,0,529.939,102.357Z" fill="#262626"></path>
    <path d="M529.939,102.357a8.635,8.635,0,0,0-7.64-8.575V91.631a10.806,10.806,0,0,0-10.806-10.806H483.654a10.806,10.806,0,0,0-10.806,10.806v2.335a8.627,8.627,0,0,0,0,16.782v2.335a10.806,10.806,0,0,0,10.806,10.806h27.839A10.806,10.806,0,0,0,522.3,113.083v-2.151A8.635,8.635,0,0,0,529.939,102.357Z" opacity="0.08"></path>
    <rect x="472.848" y="107.14" width="49.451" height="31.323" rx="5.741" transform="translate(995.147 245.603) rotate(-180)" fill="#0f1011"></rect>
    <g>
      <circle cx="502.198" cy="96.699" r="2.457" fill="#0f1011"></circle>
      <circle cx="485.137" cy="96.699" r="2.457" fill="#0f1011"></circle>
      <rect x="479.631" y="90.147" width="11.26" height="2.661" rx="1.331" transform="translate(943.42 275.697) rotate(-168.771)" fill="#0f1011"></rect>
      <rect x="497.033" y="90.147" width="11.26" height="2.661" rx="1.331" transform="translate(-8.191 99.631) rotate(-11.229)" fill="#0f1011"></rect>
      <rect x="491.71" y="99.155" width="2.457" height="4.504" rx="1.228" transform="translate(985.876 202.815) rotate(180)" opacity="0.08"></rect>
      <path d="M492.6,116.754l10.607-2.064a1.637,1.637,0,0,0,1.39-1.852h0a1.637,1.637,0,0,0-1.852-1.39l-10.607,2.063a1.638,1.638,0,0,0-1.391,1.852h0A1.639,1.639,0,0,0,492.6,116.754Z" fill="#fff"></path>
    </g>
    <path d="M508.486,80.837a6.567,6.567,0,0,1,6.562,6.568v5.6a4.018,4.018,0,0,0,4.018,4.018h0a4.018,4.018,0,0,0,4.018-4.018V80.825l-15.243-4.354Z" fill="#0f1011"></path>
  </g>
  <g>
    <rect x="287.273" y="74.931" width="29.667" height="73.744" rx="14.833" fill="#0f1011"></rect>
    <rect x="303.993" y="75.985" width="42.913" height="52.825" rx="21.456" fill="#00D176"></rect>
    <rect x="297.031" y="97.031" width="15.739" height="15.739" rx="7.87" fill="#00D176"></rect>
    <g>
      <circle cx="326.23" cy="102.605" r="2.238" fill="#0f1011"></circle>
      <circle cx="340.8" cy="102.605" r="2.238" fill="#0f1011"></circle>
      <rect x="334.756" y="96.636" width="10.26" height="2.425" rx="1.213" transform="translate(-12.547 68.057) rotate(-11.229)" fill="#0f1011"></rect>
      <rect x="319.073" y="96.636" width="10.26" height="2.425" rx="1.213" transform="translate(623.147 256.954) rotate(-168.771)" fill="#0f1011"></rect>
      <rect x="331.772" y="104.844" width="2.238" height="4.104" rx="1.119" opacity="0.08"></rect>
      <rect x="325.801" y="113.549" width="11.959" height="2.943" rx="1.471" fill="#fff"></rect>
    </g>
    <path d="M347.533,92.223a20.386,20.386,0,0,0-20.386-20.386h-3.711A20.386,20.386,0,0,0,303.05,92.222h0v9a4.86,4.86,0,0,0,4.86,4.86h0a4.86,4.86,0,0,0,4.861-4.86V96.175a3.952,3.952,0,0,1,3.952-3.952Z" fill="#0f1011"></path>
  </g>
</svg>