<svg id="Layer_1" data-name="Layer 1" xmlns="http://www.w3.org/2000/svg" viewBox="0 0 1189.266 639.816">
  <path d="M109.072,621.468c-20.734.269-41.487-1.434-65.066-17.39-4.837-3.268-9.866-7.834-9.691-13.678.131-4.4,3.391-8.245,7.325-10.234a21,21,0,0,1,4.618-1.639c.008,0,.017,0,.017-.008a41.254,41.254,0,0,1,7.5-.9l.719-.026a122.1,122.1,0,0,1,35.627,3.96,4.811,4.811,0,0,0,4.355-8.3,29.1,29.1,0,0,0-4.855-3.365,46.276,46.276,0,0,0-7.938-3.365c-3.662-1.2-7.448-2.1-11.18-3.075a268.367,268.367,0,0,1-40.552-14.055c-9.366-4.118-18.8-9-25.208-16.981C1.8,528.741-.488,524.15.09,519.48c.964-7.676,9.209-12.408,16.893-13.371,13.468-1.683,26.611,4.328,38.6,10.681,9.946,5.283,21.056,11.1,31.912,8.105a9.857,9.857,0,0,0,4.933-2.769c2.454-2.839,1.849-7.378-.341-10.427s-5.591-4.951-8.868-6.773c-19.04-10.576-38.053-21.836-53.247-37.432S3.6,431.289,3.586,409.506c0-6.37.99-12.889,4.013-18.5s8.315-10.225,14.589-11.373c8.543-1.577,16.955,3.338,23.421,9.13C67.821,408.639,76.68,438.938,89.8,465.7c3.672,7.491,7.921,15.018,14.695,19.968a5.544,5.544,0,0,0,2.138,1c4.573.982,6.571-4.635,6.781-8.919.815-16.946-3.356-34.672,2.813-50.479,2.357-6.02,6.589-11.785,12.749-13.739,7.527-2.383,15.991,1.805,20.512,8.28s5.739,14.7,5.7,22.6c-.07,14.641-4.03,29.055-9.848,42.487-3.067,7.089-6.747,14.44-5.871,22.107a15.332,15.332,0,0,0,8.937,11.96,8.984,8.984,0,0,0,7,.018c2.392-1.025,4.215-3.006,5.968-4.925.735-.806,1.471-1.62,2.216-2.427q4.39-4.81,8.78-9.629c7.439-8.166,16.736-17.06,27.7-15.658,5.6.718,10.234,4.2,13.406,8.885a27.543,27.543,0,0,1,4.653,14.361c.333,10.681-8.709,43.634-13.8,53.027C198.386,575.582,180.013,620.548,109.072,621.468Z" fill="#8ddbe0"></path>
  <path d="M1080.2,621.468c20.733.269,41.486-1.434,65.065-17.39,4.837-3.268,9.866-7.834,9.691-13.678-.131-4.4-3.391-8.245-7.325-10.234a21,21,0,0,0-4.618-1.639c-.008,0-.017,0-.017-.008a41.254,41.254,0,0,0-7.5-.9l-.719-.026a122.1,122.1,0,0,0-35.627,3.96,4.81,4.81,0,0,1-4.354-8.3,29.053,29.053,0,0,1,4.854-3.365,46.276,46.276,0,0,1,7.938-3.365c3.663-1.2,7.448-2.1,11.181-3.075a268.355,268.355,0,0,0,40.551-14.055c9.367-4.118,18.8-9,25.209-16.981,2.943-3.671,5.23-8.262,4.652-12.932-.964-7.676-9.209-12.408-16.893-13.371-13.468-1.683-26.611,4.328-38.6,10.681-9.945,5.283-21.056,11.1-31.912,8.105a9.857,9.857,0,0,1-4.933-2.769c-2.453-2.839-1.849-7.378.342-10.427s5.59-4.951,8.867-6.773c19.04-10.576,38.054-21.836,53.247-37.432s26.365-36.205,26.383-57.988c0-6.37-.99-12.889-4.013-18.5s-8.315-10.225-14.589-11.373c-8.543-1.577-16.955,3.338-23.421,9.13-22.212,19.873-31.071,50.172-44.187,76.932-3.672,7.491-7.921,15.018-14.695,19.968a5.544,5.544,0,0,1-2.138,1c-4.573.982-6.571-4.635-6.781-8.919-.815-16.946,3.356-34.672-2.813-50.479-2.357-6.02-6.589-11.785-12.749-13.739-7.527-2.383-15.991,1.805-20.512,8.28s-5.739,14.7-5.7,22.6c.07,14.641,4.03,29.055,9.849,42.487,3.066,7.089,6.746,14.44,5.87,22.107a15.332,15.332,0,0,1-8.937,11.96,8.984,8.984,0,0,1-7,.018c-2.392-1.025-4.215-3.006-5.967-4.925-.736-.806-1.472-1.62-2.217-2.427q-4.39-4.81-8.78-9.629c-7.439-8.166-16.735-17.06-27.7-15.658-5.6.718-10.234,4.2-13.406,8.885a27.543,27.543,0,0,0-4.653,14.361c-.332,10.681,8.709,43.634,13.8,53.027C990.88,575.582,1009.253,620.548,1080.2,621.468Z" fill="#8ddbe0"></path>
  <rect x="105.068" y="597.555" width="975.13" height="42.261" rx="21.13" fill="#dee8f5"></rect>
  <g>
    <rect x="167.487" width="847.161" height="604.422" rx="31.122" fill="#dee8f5"></rect>
    <rect x="186.782" y="21.225" width="808.57" height="561.3" rx="13.76" fill="#fff"></rect>
  </g>
  <g>
    <rect x="214.1" y="48.435" width="363.149" height="241.911" fill="#f3f5fd"></rect>
    <g>
      <rect x="227.441" y="78.841" width="30.12" height="211.191" fill="#c1d8ed"></rect>
      <rect x="257.56" y="78.841" width="98.711" height="211.191" transform="translate(613.831 368.873) rotate(-180)" fill="#dee8f5"></rect>
      <g opacity="0.53">
        <rect x="262.01" y="211.847" width="89.812" height="73.782" transform="translate(613.831 497.476) rotate(-180)" fill="#f3f5fd"></rect>
      </g>
      <g opacity="0.53">
        <rect x="262.01" y="83.383" width="89.812" height="38.328" transform="translate(613.831 205.095) rotate(-180)" fill="#fff"></rect>
      </g>
      <g opacity="0.53">
        <rect x="262.01" y="126.08" width="89.812" height="38.328" transform="translate(613.831 290.489) rotate(-180)" fill="#fff"></rect>
      </g>
      <g opacity="0.53">
        <rect x="262.01" y="168.777" width="89.812" height="38.328" transform="translate(613.831 375.883) rotate(-180)" fill="#fff"></rect>
      </g>
      <rect x="304.925" y="210.572" width="3.982" height="76.466" transform="translate(613.831 497.61) rotate(-180)" fill="#dee8f5"></rect>
      <g>
        <circle cx="318.695" cy="270.514" r="4.052" fill="#fff"></circle>
        <circle cx="295.136" cy="270.514" r="4.052" fill="#fff"></circle>
      </g>
      <g>
        <polygon points="335.015 133.745 335.015 139.763 335.015 164.408 303.381 164.408 303.381 139.763 303.381 133.745 335.015 133.745" fill="#c1d8ed"></polygon>
        <rect x="312.978" y="139.763" width="31.634" height="24.646" fill="#dee8f5"></rect>
        <rect x="312.978" y="139.763" width="31.634" height="1.847" fill="#c1d8ed"></rect>
        <rect x="312.978" y="133.745" width="31.634" height="6.018" transform="translate(657.591 273.507) rotate(-180)" fill="#dee8f5"></rect>
        <rect x="324.561" y="144.713" width="8.47" height="3.701" rx="0.8" transform="translate(657.591 293.126) rotate(-180)" fill="#fff"></rect>
      </g>
      <g>
        <polygon points="299.536 137.917 299.536 143.117 299.536 164.408 272.207 164.408 272.207 143.117 272.207 137.917 299.536 137.917" fill="#c1d8ed"></polygon>
        <rect x="281.164" y="143.117" width="27.329" height="21.292" fill="#dee8f5"></rect>
        <rect x="281.164" y="143.117" width="27.329" height="1.596" fill="#c1d8ed"></rect>
        <rect x="281.164" y="137.917" width="27.329" height="5.199" transform="translate(589.657 281.034) rotate(-180)" fill="#dee8f5"></rect>
        <rect x="291.17" y="147.393" width="7.317" height="3.197" rx="0.691" transform="translate(589.657 297.983) rotate(-180)" fill="#fff"></rect>
      </g>
      <g>
        <rect x="342.963" y="96.691" width="4.248" height="22.524" transform="translate(34.096 -76.502) rotate(13.302)" fill="#fff"></rect>
        <g>
          <rect x="340.524" y="94.853" width="2.334" height="19.565" transform="translate(-13.312 63.721) rotate(-10.452)" fill="#c1d8ed"></rect>
          <rect x="338.951" y="94.996" width="2.334" height="2.16" transform="translate(-11.965 65.278) rotate(-10.775)" fill="#dee8f5"></rect>
        </g>
        <rect x="334.942" y="108.698" width="20.29" height="1.37" transform="translate(116.832 390.363) rotate(-68.498)" fill="#c1d8ed"></rect>
        <rect x="338.586" y="107.954" width="11.21" height="14.327" fill="#c1d8ed"></rect>
      </g>
      <g>
        <rect x="323.145" y="96.787" width="9.512" height="25.216" fill="#c1d8ed"></rect>
        <rect x="319.007" y="93.317" width="5.089" height="28.686" fill="#dee8f5"></rect>
        <rect x="311.088" y="94.936" width="7.919" height="27.067" fill="#fff"></rect>
        <rect x="287.251" y="94.936" width="4.627" height="27.067" fill="#dee8f5"></rect>
        <rect x="296.798" y="97.828" width="9.716" height="23.134" transform="translate(-17.447 143.109) rotate(-25.964)" fill="#dee8f5"></rect>
        <rect x="277.775" y="96.94" width="9.512" height="25.216" fill="#c1d8ed"></rect>
        <rect x="273.638" y="93.47" width="5.089" height="28.686" fill="#dee8f5"></rect>
        <rect x="265.719" y="95.089" width="7.919" height="27.067" fill="#c1d8ed"></rect>
      </g>
      <g>
        <rect x="319.202" y="179.959" width="4.627" height="27.067" transform="translate(71.418 -86.262) rotate(17.164)" fill="#dee8f5"></rect>
        <rect x="269.777" y="181.889" width="9.512" height="25.216" fill="#c1d8ed"></rect>
        <rect x="278.337" y="178.419" width="5.089" height="28.686" fill="#fff"></rect>
        <rect x="283.426" y="180.039" width="7.919" height="27.067" fill="#dee8f5"></rect>
        <rect x="310.556" y="180.039" width="4.627" height="27.067" fill="#dee8f5"></rect>
        <rect x="295.919" y="183.012" width="9.716" height="23.134" transform="translate(115.546 -112.044) rotate(25.964)" fill="#fff"></rect>
      </g>
      <g>
        <path d="M330.06,193.627a1.5,1.5,0,0,0,2.036.582,1.564,1.564,0,0,1,1.479.265,3.521,3.521,0,0,1,1.327,2.058h7.884a10.816,10.816,0,0,1,.183-1.415,6.267,6.267,0,0,1,1.722-3.373,1.413,1.413,0,0,1,.821-.441,1.5,1.5,0,1,0,1.317-2.689,3.73,3.73,0,0,0-4.17.928,7.647,7.647,0,0,0-1.079,1.24,13.267,13.267,0,0,1,.558-2.248,5.221,5.221,0,0,1,1.6-2.372,1.5,1.5,0,0,0-1.814-2.387,8.062,8.062,0,0,0-2.6,3.743c-.054.149-.1.3-.151.453-.933-2.323-1.888-4.289-3.814-5.421a1.5,1.5,0,0,0-1.52,2.584c1.176.691,1.88,2.253,2.674,4.257a11.232,11.232,0,0,0-3.1-2.5,1.5,1.5,0,1,0-1.434,2.63,8.287,8.287,0,0,1,2.387,1.978,4.338,4.338,0,0,0-3.722.09A1.5,1.5,0,0,0,330.06,193.627Z" fill="#8ddbe0"></path>
        <rect x="331.803" y="196.532" width="13.931" height="4.05" fill="#dee8f5"></rect>
        <path d="M331.8,200.583v4.44a2.082,2.082,0,0,0,2.082,2.082h9.767a2.083,2.083,0,0,0,2.083-2.082v-4.44Z" fill="#c1d8ed"></path>
      </g>
    </g>
    <g>
      <polygon points="543.749 97.146 543.749 205.023 486.188 205.023 486.188 207.343 483.594 207.343 483.594 205.023 426.033 205.023 426.033 97.146 543.749 97.146" fill="#fff"></polygon>
      <rect x="426.032" y="70.419" width="117.719" height="134.603" fill="#fff"></rect>
      <g>
        <g opacity="0.78">
          <rect x="432.519" y="145.951" width="28.524" height="61.392" fill="#c1d8ed"></rect>
        </g>
        <g opacity="0.78">
          <polygon points="489.298 132.805 517.047 124.223 517.047 208.519 489.298 208.519 489.298 132.805" fill="#c1d8ed"></polygon>
        </g>
        <polygon points="458.684 157.568 476.781 145.613 493.712 157.568 493.712 208.519 458.684 208.519 458.684 157.568" fill="#dee8f5"></polygon>
        <rect x="509.41" y="170.201" width="34.309" height="38.318" fill="#dee8f5"></rect>
        <rect x="426.032" y="185.669" width="12.427" height="21.356" fill="#dee8f5"></rect>
      </g>
      <rect x="426.032" y="97.148" width="117.719" height="107.874" fill="none"></rect>
      <g>
        <rect x="426.033" y="149.787" width="117.717" height="2.595" fill="#f3f5fd"></rect>
        <rect x="426.033" y="121.661" width="117.717" height="2.595" fill="#f3f5fd"></rect>
        <rect x="426.033" y="177.919" width="117.717" height="2.595" fill="#f3f5fd"></rect>
        <rect x="483.594" y="97.146" width="2.595" height="110.197" fill="#f3f5fd"></rect>
      </g>
      <rect x="417.728" y="205.022" width="134.326" height="6.188" fill="#c1d8ed"></rect>
      <rect x="417.728" y="64.231" width="134.326" height="6.188" fill="#c1d8ed"></rect>
      <rect x="426.032" y="91.741" width="117.719" height="5.407" fill="#dee8f5"></rect>
      <rect x="426.032" y="84.634" width="117.719" height="5.407" fill="#dee8f5"></rect>
      <rect x="426.032" y="77.527" width="117.719" height="5.407" fill="#dee8f5"></rect>
      <rect x="426.032" y="70.419" width="117.719" height="5.407" fill="#dee8f5"></rect>
    </g>
    <path d="M321.311,109.189c-.22-21.32,8.206-34.532,19.631-41.786,11.273-7.158,46.623-13.388,60.025,12.6,8.746,16.955,5.294,23.016,7.771,50.173s12,30.006,21.647,62.922c7.571,25.82-34.836,39.527-71.566,38.342s-60.008-9.315-62.139-32.674C293.621,165.239,321.742,150.97,321.311,109.189Z" fill="#0f1011"></path>
    <path d="M343.193,168.135s11.033-5.98,8.281-36.148l22.868-4.458s-2.326,27.092,9.342,35.58Z" fill="#E98862"></path>
    <g opacity="0.15">
      <path d="M378.938,157.493l-19.163-14.384,14.945-.292C375.336,147.843,376.562,153.232,378.938,157.493Z"></path>
    </g>
    <path d="M338.369,120.4c1.67,9.145,6.748,17.774,14.855,20.658,9.624,3.425,16.776,4.5,27.79,3.5,25.058-2.286,19.574-59.261,7.567-70.227S341.7,70.694,337.616,89.258C335.506,98.859,336.78,111.694,338.369,120.4Z" fill="#E98862"></path>
    <g>
      <circle cx="374.157" cy="110.937" r="2.077" fill="#0f1011"></circle>
      <circle cx="390.536" cy="109.443" r="2.077" fill="#0f1011"></circle>
      <path d="M394.086,104.982h0l-5.5-.019a.976.976,0,0,1,0-1.952h0l5.5.019a.976.976,0,0,1,0,1.952Z" fill="#0f1011"></path>
      <path d="M369.629,107.214a.976.976,0,0,1-.236-1.923l5.414-1.356a.976.976,0,1,1,.475,1.893l-5.415,1.356A.97.97,0,0,1,369.629,107.214Z" fill="#0f1011"></path>
      <path d="M375.269,127.29s7.676.739,13.034-1.189c0,0,0,5.051-6.06,5.6S375.269,127.29,375.269,127.29Z" fill="#fff"></path>
    </g>
    <path d="M355.024,96.512c1.876,32.413-4.575,57.251-4.575,57.251s-19.547-23.48-22.5-48.552c-2.771-23.5,14.438-37.554,26.127-40.28,44.422-10.362,47.507,22.04,47.507,22.04-2.872,11.053-51.366,17.911-51.366,17.911" fill="#0f1011"></path>
    <path d="M363.749,119.987a8.808,8.808,0,0,1-17.543,1.6,8.662,8.662,0,0,1,7.971-9.572C360.453,111.754,363.307,115.143,363.749,119.987Z" fill="#E98862"></path>
    <g opacity="0.15">
      <path d="M383.479,122.376a.717.717,0,0,1-.217-1.4l4.214-1.337-3.016-6.555a.717.717,0,1,1,1.3-.6l3.355,7.292a.716.716,0,0,1-.434.983l-4.987,1.582A.717.717,0,0,1,383.479,122.376Z"></path>
    </g>
    <g>
      <g>
        <path d="M493.685,180.644s2.286-17.02,14.363-14.652c7.62,1.494,44.351,4.238,44.49,7.634.344,8.4-33.31,6.345-37.276,13.647Z" fill="#E98862"></path>
        <path d="M503.667,166.014s17.632-3.465,21.679-1.968c3.584,1.325-4.838,6.4-4.838,6.4Z" fill="#E98862"></path>
      </g>
      <g>
        <path d="M450.6,277.457c-.227,0-.454,0-.683-.017a13.984,13.984,0,0,1-11.662-7.392l-44.871-84.205,26.217-11.623,32.324,62,43.034-64.7,23.291,15.491-56.007,84.205A13.985,13.985,0,0,1,450.6,277.457Z" fill="#00D176"></path>
        <path d="M421.793,290.348H307.208a93.264,93.264,0,0,0,4.969-27.6q.03-1.244.03-2.531a70.384,70.384,0,0,0-1.644-14.173c-3.787-18.377-12.8-38.3-12.287-55.179.238-8.044,2.648-15.4,8.81-21.567,6.536-6.531,17.815-10.749,31.57-10.764,1.028,8.02,49.729,8.049,50.1.184,1.861.029,3.306.058,4.2.1,17.393.752,25.607,8.485,29.01,19.933,4.529,15.211.563,36.977-1.638,57.647-.665,6.206-1.164,12.316-1.232,18.115A185.406,185.406,0,0,0,421.793,290.348Z" fill="#00D176"></path>
        <path d="M388.755,158.716c-.371,7.863-4.647,19.43-17.843,20.3-17.586,1.159-31.226-12.467-32.256-20.488h.043C356.014,158.53,378.661,158.558,388.755,158.716Z" fill="#E98862"></path>
        <path d="M363.487,276.858l-3.71,13.49H307.208a.3.3,0,0,1-.015.038l-.136-.038-22.42-6.168a13.989,13.989,0,0,1-9.659-17.6l23.3-75.718,2.691-8.752,26.736,8.224-17.14,55.707-4.611,14.992,6.225,1.712Z" fill="#00D176"></path>
      </g>
    </g>
    <g>
      <circle cx="395.361" cy="265.89" r="11.816" fill="#fd5d76"></circle>
      <path d="M401.18,269.537h-2.871a1.4,1.4,0,0,1-1.4-1.4v-1.943a1.393,1.393,0,0,1,.373-.952,8.464,8.464,0,0,0-1.919-.193,8.269,8.269,0,0,0-2.025.219,1.4,1.4,0,0,1,.409.99v1.879a1.4,1.4,0,0,1-1.4,1.4h-2.8a1.4,1.4,0,0,1-1.4-1.4c0-3.634,2.766-5.892,7.22-5.892s7.221,2.258,7.221,5.892A1.4,1.4,0,0,1,401.18,269.537Z" fill="#fff"></path>
    </g>
    <g>
      <circle cx="363.799" cy="265.89" r="8.355" fill="#8ddbe0"></circle>
      <g>
        <path d="M363.8,268.574a1.944,1.944,0,0,1-1.942-1.941v-3.712a1.942,1.942,0,0,1,3.884,0v3.712A1.944,1.944,0,0,1,363.8,268.574Z" fill="#fff"></path>
        <path d="M363.8,270.6a.394.394,0,0,1-.394-.394v-3.545a.394.394,0,1,1,.788,0v3.545A.393.393,0,0,1,363.8,270.6Z" fill="#fff"></path>
        <path d="M365.572,270.8h-3.545a.394.394,0,0,1,0-.788h3.545a.394.394,0,0,1,0,.788Z" fill="#fff"></path>
      </g>
    </g>
    <g>
      <circle cx="426.924" cy="265.89" r="8.355" fill="#00D176"></circle>
      <g>
        <rect x="422.593" y="263.162" width="6.736" height="5.457" fill="#fff"></rect>
        <polyline points="431.254 268.176 428.866 265.788 431.254 263.399" fill="#fff"></polyline>
      </g>
    </g>
    <g>
      <rect x="604.885" y="48.435" width="363.15" height="241.91" fill="#f3f5fd"></rect>
      <g>
        <rect x="695.673" y="77.277" width="86.146" height="104.638" transform="translate(868.342 -609.15) rotate(90)" fill="#dee8f5"></rect>
        <rect x="702.887" y="84.491" width="71.718" height="90.21" transform="translate(868.342 -609.15) rotate(90)" fill="#fff"></rect>
        <g>
          <rect x="711.403" y="104.174" width="38.354" height="44.869" transform="translate(857.188 -603.971) rotate(90)" fill="#c1d8ed"></rect>
          <rect x="741.615" y="129.873" width="27.732" height="27.732" rx="13.866" transform="translate(899.221 -611.742) rotate(90)" fill="#dee8f5"></rect>
          <rect x="715.279" y="139.047" width="30.997" height="6.12" transform="translate(872.884 -588.67) rotate(90)" fill="#f3f5fd"></rect>
        </g>
      </g>
      <g>
        <g>
          <g>
            <path d="M732.7,289.621a10.814,10.814,0,0,1-6.974-7.4,18.537,18.537,0,0,1,.335-10.456c.81-2.77,2.038-5.447,2.341-8.317,1.007-9.556-8.262-19.32-3.9-27.882,1.411-2.769,4.14-4.933,4.627-8,.4-2.538-.847-5-1.469-7.5a11.657,11.657,0,0,1,1.805-10.073c2.226-2.748,6.433-3.949,9.5-2.189,4.013,2.3,4.36,7.984,3.329,12.493s-2.942,9.148-1.682,13.6c1.2,4.242,5.109,7.437,5.81,11.79.582,3.618-1.184,7.147-1.96,10.729-1.22,5.63.021,11.466.075,17.226S742.966,285.857,732.7,289.621Z" fill="#8ddbe0"></path>
            <path d="M727.456,288.854c-4.047-1.23-7.281-3.5-8.087-7.655-.665-3.428.151-7.278-1.725-10.222-2.542-3.991-5.148-4.442-8.313-7.959-4.866-5.407-5.037-7.8-4.716-17.818.136-4.236-5.713-9.016-3.653-13.085,1.815-3.586,7.331-3.6,10.459-1.081s4.5,6.567,5.865,10.348,3.081,7.78,6.537,9.832c2.072,1.23,4.784,1.8,5.929,3.92.92,1.7.456,3.784.087,5.685-.93,4.778-.7,10.607,3.313,13.367,1.809,1.245,4.179,1.673,5.666,3.289,1.47,1.6,1.707,3.965,1.608,6.134" fill="#dee8f5"></path>
            <path d="M769.225,229.265c0,6.05-4.54,8.65-6.85,11.39a21.236,21.236,0,0,0-4.96,14.19c.16,5.78,2.62,11.93-.01,17.08-1.93,3.78-6.05,5.8-9.29,8.54a23.473,23.473,0,0,0-6.83,9.88h-10.97a13.257,13.257,0,0,1,.78-12.14c2.46-3.89,7.03-6.57,7.99-11.07.86-4.01-1.52-8.15-.8-12.18.77-4.39,4.82-7.27,8.04-10.35a11.27,11.27,0,0,0,2.14-2.58c1.41-2.55,1.02-5.67,1.5-8.55.92-5.5,5.46-10.39,10.97-11.3C765.765,221.375,769.225,224.155,769.225,229.265Z" fill="#f3f5fd"></path>
          </g>
          <rect x="718.745" y="284.005" width="29.13" height="6.34" fill="#00D176"></rect>
        </g>
        <g>
          <path d="M948.542,266.019H868.171l5.451-59.292a5.713,5.713,0,0,1,5.689-5.19h68.9a5.712,5.712,0,0,1,5.689,6.236Z" fill="#c1d8ed"></path>
          <rect x="822.539" y="238.302" width="54.64" height="48.873" fill="#c1d8ed"></rect>
          <path d="M932.965,266.019H855.559l5.45-59.292a5.714,5.714,0,0,1,5.689-5.19h65.933a5.712,5.712,0,0,1,5.689,6.236Z" fill="#dee8f5"></path>
          <g opacity="0.48">
            <path d="M932.965,266.019H855.559l5.45-59.292a5.714,5.714,0,0,1,5.689-5.19h65.933a5.712,5.712,0,0,1,5.689,6.236Z" fill="#c1d8ed"></path>
          </g>
          <path d="M960.285,246.405v40.88a7.987,7.987,0,0,1-.6,3.06h-54.04v-52.04h46.54A8.1,8.1,0,0,1,960.285,246.405Z" fill="#c1d8ed"></path>
          <path d="M914.535,247.2v39.3a8.848,8.848,0,0,1-.88,3.85h-99.14a8.841,8.841,0,0,1-.87-3.85V247.2a8.9,8.9,0,0,1,17.79,0v30.41h65.32V247.2a8.89,8.89,0,1,1,17.78,0Z" fill="#dee8f5"></path>
          <path d="M826.775,260.054h70.1a0,0,0,0,1,0,0v19.02a0,0,0,0,1,0,0h-70.1a5.683,5.683,0,0,1-5.683-5.683v-7.654A5.683,5.683,0,0,1,826.775,260.054Z" fill="#f3f5fd"></path>
          <g opacity="0.15">
            <path d="M826.775,260.054h70.1a0,0,0,0,1,0,0v19.02a0,0,0,0,1,0,0h-70.1a5.683,5.683,0,0,1-5.683-5.683v-7.654A5.683,5.683,0,0,1,826.775,260.054Z" fill="#c1d8ed"></path>
          </g>
        </g>
        <g>
          <rect x="642.157" y="238.302" width="54.64" height="45.703" transform="translate(1338.954 522.307) rotate(-180)" fill="#c1d8ed"></rect>
          <path d="M663.775,266.015h-58.89v-64.48h47.75a5.709,5.709,0,0,1,5.69,5.19Z" fill="#dee8f5"></path>
          <g opacity="0.48">
            <path d="M663.775,266.015h-58.89v-64.48h47.75a5.709,5.709,0,0,1,5.69,5.19Z" fill="#c1d8ed"></path>
          </g>
          <path d="M613.7,238.305v52.04h-8.81v-2.59a8.692,8.692,0,0,1-.09-1.26V247.2a8.692,8.692,0,0,1,.09-1.26v-7.63Z" fill="#c1d8ed"></path>
          <path d="M705.685,247.2v39.3a8.841,8.841,0,0,1-.87,3.85h-99.14a8.86,8.86,0,0,1-.88-3.85V247.2a8.692,8.692,0,0,1,.09-1.26,8.9,8.9,0,0,1,17.7,1.26v30.41h65.32V247.2a8.89,8.89,0,0,1,17.78,0Z" fill="#dee8f5"></path>
          <path d="M628.144,260.054h70.1a0,0,0,0,1,0,0v19.02a0,0,0,0,1,0,0h-70.1a5.683,5.683,0,0,1-5.683-5.683v-7.654a5.683,5.683,0,0,1,5.683-5.683Z" transform="translate(1320.705 539.128) rotate(-180)" fill="#f3f5fd"></path>
          <g opacity="0.15">
            <path d="M628.144,260.054h70.1a0,0,0,0,1,0,0v19.02a0,0,0,0,1,0,0h-70.1a5.683,5.683,0,0,1-5.683-5.683v-7.654a5.683,5.683,0,0,1,5.683-5.683Z" transform="translate(1320.705 539.128) rotate(-180)" fill="#c1d8ed"></path>
          </g>
        </g>
      </g>
      <g>
        <g>
          <path d="M818.087,171.525s-12.143-6.018-10.363-38.684l-24.854-3.909s3.578,29.146-8.678,38.766Z" fill="#E98862"></path>
          <g opacity="0.15">
            <path d="M779.091,161.45l20.114-16.279-16.14.275C782.6,150.894,781.487,156.758,779.091,161.45Z"></path>
          </g>
          <path d="M821.41,119.818c-1.442,9.936-6.581,19.447-15.217,22.88-10.25,4.076-17.913,4.542-29.852,4.869-16.291.446-16.218-16.559-17.144-33.668-.93-17.178-.068-35.655,6.207-41.821,12.525-12.308,50.454-5.769,55.589,14.1C823.65,96.459,822.781,110.362,821.41,119.818Z" fill="#E98862"></path>
          <path d="M806.813,141.743c.559,1.63.938,2.337,2.395,1.417,5.72-3.614,18.6-11.489,22.284-39.773,3.3-25.344-12.547-35.325-25.063-38.7-10.788-2.908-35.779-2.882-47.306,4.5-9.933,6.364.554,20.247.554,20.247,4.469.084,5.475,3.9,16.006,3.608,8.141-.223,13.336-4.007,20.967-3.9,6.986.1,8.536,4.317,8.363,7.045C803.965,112.777,804.837,135.979,806.813,141.743Z" fill="#0f1011"></path>
          <g>
            <circle cx="782.414" cy="111.019" r="2.243" fill="#0f1011"></circle>
            <circle cx="764.68" cy="110.052" r="2.243" fill="#0f1011"></circle>
            <path d="M760.634,105.379a1.054,1.054,0,0,1-.041-2.107l5.939-.237a1.054,1.054,0,0,1,.084,2.107l-5.939.236Z" fill="#0f1011"></path>
            <path d="M787.115,106.822a1.025,1.025,0,0,1-.219-.023L781,105.55a1.054,1.054,0,1,1,.437-2.062l5.9,1.249a1.054,1.054,0,0,1-.217,2.085Z" fill="#0f1011"></path>
          </g>
          <path d="M794.232,116.188a9.512,9.512,0,0,0,19,1.035c.286-5.246-3.727-9.988-8.98-10.015C797.464,107.172,794.518,110.942,794.232,116.188Z" fill="#E98862"></path>
          <g opacity="0.15">
            <path d="M772.778,123.732a.776.776,0,0,1-.207-.028l-5.445-1.51a.775.775,0,0,1-.508-1.044l3.334-8a.773.773,0,1,1,1.428.594l-3,7.193,4.6,1.276a.775.775,0,0,1-.206,1.521Z"></path>
          </g>
          <path d="M781.86,128.711s-8.255,1.1-14.113-.769c0,0,.2,5.451,6.761,5.809S781.86,128.711,781.86,128.711Z" fill="#fff"></path>
        </g>
        <g>
          <path d="M648.291,173.255s1.72-12.794,3.878-13.034c3.6-.4,6.743,16.918,8.284,20.722L643.537,186.3" fill="#E98862"></path>
          <path d="M632.369,146.331c-5.19,1.633-3.925,18.007,1.907,32.4s14.649,24.411,19.692,22.368,4.4-15.37-1.428-29.767S643.537,142.817,632.369,146.331Z" fill="#E98862"></path>
        </g>
        <path d="M681.983,282.251a15.83,15.83,0,0,1-14.756-10.093L632.369,182.5l29.509-11.473,25.171,64.747,54.3-64.664L765.6,191.465,694.105,276.6A15.832,15.832,0,0,1,681.983,282.251Z" fill="#262626"></path>
        <path d="M848.457,263.5a92.7,92.7,0,0,0,3.911,26.884H737.788A194.063,194.063,0,0,0,739.9,257.7c-.466-40.282-21.64-95.114,26.539-97.182.914-.045,2.383-.075,4.27-.1.375,7.987,49.828,7.957,50.877-.195,13.966.015,25.43,4.3,32.069,10.94a29.145,29.145,0,0,1,6.953,10.819c6.069,16.679-2.952,38.139-8.436,58.594C850.046,248.472,848.457,256.234,848.457,263.5Z" fill="#262626"></path>
        <path d="M770.711,160.417c.377,7.986,4.719,19.732,18.121,20.618,17.86,1.176,31.712-12.661,32.758-20.807h-.044C803.962,160.228,780.963,160.257,770.711,160.417Z" fill="#E98862"></path>
        <path d="M900.442,290.386H868.508l-2.5-18.657-13.831-31.155-20.351-45.8,28.787-12.8.15-.06,35.1,79.035a15.822,15.822,0,0,1,1.214,4.315Z" fill="#262626"></path>
      </g>
      <g>
        <circle cx="786.149" cy="265.89" r="11.816" fill="#fd5d76"></circle>
        <path d="M791.967,269.537H789.1a1.4,1.4,0,0,1-1.4-1.4v-1.943a1.394,1.394,0,0,1,.374-.952,8.47,8.47,0,0,0-1.919-.193,8.277,8.277,0,0,0-2.026.219,1.4,1.4,0,0,1,.41.99v1.879a1.4,1.4,0,0,1-1.4,1.4h-2.8a1.4,1.4,0,0,1-1.4-1.4c0-3.634,2.767-5.892,7.221-5.892s7.22,2.258,7.22,5.892A1.4,1.4,0,0,1,791.967,269.537Z" fill="#fff"></path>
      </g>
      <g>
        <circle cx="754.586" cy="265.89" r="8.355" fill="#8ddbe0"></circle>
        <g>
          <path d="M754.587,268.574a1.945,1.945,0,0,1-1.943-1.941v-3.712a1.942,1.942,0,1,1,3.884,0v3.712A1.944,1.944,0,0,1,754.587,268.574Z" fill="#fff"></path>
          <path d="M754.587,270.6a.393.393,0,0,1-.394-.394v-3.545a.394.394,0,1,1,.788,0v3.545A.394.394,0,0,1,754.587,270.6Z" fill="#fff"></path>
          <path d="M756.359,270.8h-3.545a.394.394,0,0,1,0-.788h3.545a.394.394,0,0,1,0,.788Z" fill="#fff"></path>
        </g>
      </g>
      <g>
        <circle cx="817.711" cy="265.89" r="8.355" fill="#00D176"></circle>
        <g>
          <rect x="813.381" y="263.162" width="6.736" height="5.457" fill="#fff"></rect>
          <polyline points="822.042 268.176 819.653 265.788 822.042 263.399" fill="#fff"></polyline>
        </g>
      </g>
    </g>
    <g>
      <rect x="604.887" y="314.076" width="363.149" height="241.911" fill="#f3f5fd"></rect>
      <g>
        <path d="M626.975,552.835a49.562,49.562,0,0,1,8.25,3.15h-18.04a3.137,3.137,0,0,1,.17-.67,5.23,5.23,0,0,1,4.21-3.11,8.623,8.623,0,0,1,2.03-.05c.01,0,.01,0,.01-.01a16.962,16.962,0,0,1,3.08.61C626.785,552.785,626.885,552.8,626.975,552.835Z" fill="#8ddbe0"></path>
        <path d="M700.155,547.715a42.974,42.974,0,0,1-4.26,8.27h-52.72a11.994,11.994,0,0,0-1.32-1.69,18.961,18.961,0,0,0-2.71-2.35c-1.29-.94-2.67-1.79-4.02-2.65a111.953,111.953,0,0,1-14.24-10.76c-3.18-2.83-6.28-5.97-7.79-9.95a7.405,7.405,0,0,1-.18-5.71c1.36-2.91,5.23-3.72,8.39-3.12,5.54,1.06,9.97,5.12,13.9,9.17,3.25,3.37,6.9,7.09,11.58,7.3a4.149,4.149,0,0,0,2.31-.46,3.63,3.63,0,0,0,1.2-4.17,10.808,10.808,0,0,0-2.64-3.81c-6.18-6.63-12.25-13.52-16.26-21.64s-5.79-17.7-3-26.31a16.147,16.147,0,0,1,3.96-6.8,9.04,9.04,0,0,1,7.23-2.63c3.58.47,6.27,3.49,8.09,6.61,6.24,10.71,5.85,23.83,7.61,36.09.49,3.44,1.21,6.96,3.25,9.79a2.308,2.308,0,0,0,.72.67c1.68.97,3.19-1,3.83-2.66,1.09-2.88,1.82-5.95,2.66-8.93a34.765,34.765,0,0,1,3.44-8.59,21.38,21.38,0,0,1,1.48-2.09c1.7-2.07,4.12-3.81,6.8-3.8,3.29.03,6.1,2.77,7.05,5.91s.39,6.55-.64,9.67a45.358,45.358,0,0,1-9.34,15.54c-2.12,2.41-4.52,4.84-5.16,7.99a6.4,6.4,0,0,0,2,5.88,3.726,3.726,0,0,0,2.77.9,7.715,7.715,0,0,0,2.99-1.18c.4-.23.79-.45,1.19-.68q2.355-1.335,4.71-2.68c3.99-2.28,8.8-4.6,12.96-2.64a8.056,8.056,0,0,1,4.16,5.23A11.362,11.362,0,0,1,700.155,547.715Z" fill="#8ddbe0"></path>
      </g>
      <g>
        <circle cx="888.625" cy="349.101" r="20.24" fill="#c1d8ed"></circle>
        <circle cx="884.499" cy="349.101" r="20.24" fill="#dee8f5"></circle>
        <circle cx="884.499" cy="349.101" r="17.258" fill="#f3f5fd"></circle>
        <path d="M884.5,350.693a.813.813,0,0,1-.416-.113.825.825,0,0,1-.409-.712V337.116a.825.825,0,1,1,1.65,0v11.342l7.1-3.99a.825.825,0,1,1,.808,1.438l-8.327,4.681A.825.825,0,0,1,884.5,350.693Z" fill="#dee8f5"></path>
      </g>
      <g>
        <g>
          <g>
            <polygon points="909.645 520.505 908.705 525.085 902.375 555.985 899.485 555.985 905.845 525.085 907.065 519.135 909.645 520.505" fill="#c1d8ed"></polygon>
            <polygon points="948.165 555.985 945.285 555.985 938.945 525.085 937.985 520.415 940.575 519.045 941.815 525.085 948.165 555.985" fill="#c1d8ed"></polygon>
          </g>
          <rect x="894.51" y="514.755" width="58.617" height="10.329" rx="2.458" fill="#dee8f5"></rect>
        </g>
        <g>
          <path d="M939.51,478c-2.174-.712-4.406.087-6.541,1.711,2.812-7.1,3.973-13.516-.834-13.8-3.365-.2-5.941,2.378-7.9,6.048-.689-6.452-2.465-11.263-6.444-9.668-4.369,1.751-5.033,7.753-4.371,14.033-1.924-3.207-4-5-5.878-3.115-5.615,5.616,8.168,21.441,8.168,21.441h3.423l1.953,2.121c-.395.836-.612,1.333-.612,1.333l2.481,5.05S948.534,480.957,939.51,478Z" fill="#8ddbe0"></path>
          <polygon points="933.373 514.461 914 514.461 910.757 491.845 936.616 491.845 933.373 514.461" fill="#c1d8ed"></polygon>
        </g>
      </g>
      <g>
        <path d="M864.525,542.168H767.813l8.1-73.364a10.386,10.386,0,0,1,10.231-8.6h75.629a10.385,10.385,0,0,1,10.23,12.169Z" fill="#c1d8ed"></path>
        <path d="M851.315,507.625s-.48,17.03-1.47,34.54c-.26,4.68-.56,9.39-.9,13.82H700.705v-37.38a10.977,10.977,0,0,1,10.97-10.98Z" fill="#f3f5fd"></path>
        <path d="M811.465,507.625v48.36h-87.3v-37.38a10.979,10.979,0,0,1,10.98-10.98Z" fill="#dee8f5"></path>
        <path d="M845.1,542.168H748.386l8.1-73.364a10.386,10.386,0,0,1,10.231-8.6H842.35a10.385,10.385,0,0,1,10.231,12.169Z" fill="#dee8f5"></path>
        <path d="M831.085,550.185v5.8H704.535v-5.8a8.019,8.019,0,0,1,8.02-8.02h110.51A8.019,8.019,0,0,1,831.085,550.185Z" fill="#fff"></path>
        <path d="M872.575,507.625v48.36h-64.07v-37.38a10.979,10.979,0,0,1,10.98-10.98Z" fill="#f3f5fd"></path>
        <path d="M886.665,517.925v38.06h-54.7v-37.38a10.979,10.979,0,0,1,10.98-10.98h33.42A10.3,10.3,0,0,1,886.665,517.925Z" fill="#dee8f5"></path>
      </g>
      <g>
        <g>
          <rect x="678.295" y="412.922" width="1.146" height="28.31" fill="#c1d8ed"></rect>
          <circle cx="678.868" cy="442.301" r="2.687" fill="#c1d8ed"></circle>
        </g>
        <polygon points="669.405 395.195 669.335 429.935 669.185 503.385 669.075 555.985 665.655 555.985 665.745 511.975 665.915 429.935 665.985 395.195 669.405 395.195" fill="#c1d8ed"></polygon>
        <polygon points="692.823 429.935 641.117 429.935 650.83 381.468 683.11 381.468 692.823 429.935" fill="#dee8f5"></polygon>
      </g>
      <g>
        <path d="M698.688,553.245A14.658,14.658,0,0,1,685,533.367l28.857-75.679,20.354,7.761,12.014-16.363,23.626,17.345-59.345,80.83A14.648,14.648,0,0,1,698.688,553.245Z" fill="#225EDD"></path>
        <path d="M869.947,553.31a15.215,15.215,0,0,1-5.531,2.676h-7.471a15.252,15.252,0,0,1-3.679-1.465l-4.089-2.282c.461,1.279.892,2.52,1.286,3.747H730c2.23-9.753,6.229-23.662,5.917-50.008-.446-38.716-20.8-78.859,25.513-80.851.878-.044,2.29-.067,4.1-.1.364,7.671,47.9,7.649,48.907-.186,13.426.015,24.436,4.133,30.814,10.511a27.61,27.61,0,0,1,8.162,14.727l22.027,87.437A15.225,15.225,0,0,1,869.947,553.31Z" fill="#225EDD"></path>
        <path d="M765.53,425.029c.362,7.676,4.536,18.968,17.418,19.819,17.167,1.131,30.482-12.171,31.487-20h-.042C797.491,424.848,775.383,424.875,765.53,425.029Z" fill="#E98862"></path>
        <path d="M748.572,451.181c.726.977.112,2.373-3.81,6.5-2.443,2.582-5.43,6.169-7.635,8.876l-19.973-7.62c1.424-5.89,3.7-14.013,5.821-15.856,3.4-2.958,16.009,2.736,16.009,2.736s1.367-4.187,3.154-8.514c2.052-4.983,4.661-10.161,6.364-9.309,1.647.823.433,5.973-1.451,11.5-2.415,7.118-5.946,14.851-5.946,14.851S746.785,448.8,748.572,451.181Z" fill="#E98862"></path>
        <g>
          <path d="M750.61,495.064l16.918-2.7a4.784,4.784,0,0,0,3.855-6.008l-10.645-38.2a4.784,4.784,0,0,0-5.362-3.44l-16.918,2.7a4.784,4.784,0,0,0-3.854,6.008l10.645,38.2A4.782,4.782,0,0,0,750.61,495.064Z" fill="#c1d8ed"></path>
          <path d="M777.856,485.051l-9.978,13.539s-26.82-5.376-29.335-26.037c-.29-2.38-.039-8.961,2.907-8.078,7.673,2.3,17.229,14.079,23.928,15.646-1.528-2.737-3.393-6.6-2.191-7.309C766.351,470.953,774.857,482.17,777.856,485.051Z" fill="#E98862"></path>
        </g>
        <g>
          <path d="M752.409,346.373s-10.756,38.539-16.8,58.538a6.339,6.339,0,0,0,6.075,8.172h37.746a6.346,6.346,0,0,0,6.337-6.044l2.544-53.649Z" fill="#0f1011"></path>
          <path d="M810.257,432.1s-10.979-5.808-8.555-35.69l-22.675-4.183s2.572,26.787-8.89,35.3Z" fill="#E98862"></path>
          <g opacity="0.15">
            <path d="M774.777,421.928,793.6,407.5l-14.792-.142A40.8,40.8,0,0,1,774.777,421.928Z"></path>
          </g>
          <path d="M814.556,384.816c-1.561,9.066-6.5,17.655-14.5,20.59a57.452,57.452,0,0,1-27.465,3.736c-24.82-2.012-19.961-58.448-8.188-69.42s46.36-4.061,50.583,14.268C817.174,363.471,816.041,376.192,814.556,384.816Z" fill="#E98862"></path>
          <g>
            <circle cx="779.044" cy="375.808" r="2.056" fill="#0f1011"></circle>
            <circle cx="762.822" cy="374.492" r="2.056" fill="#0f1011"></circle>
            <path d="M759.254,370.115a.967.967,0,0,1-.013-1.933l5.448-.074h.014a.967.967,0,0,1,.013,1.933l-5.448.074Z" fill="#0f1011"></path>
            <path d="M783.478,372.079a.982.982,0,0,1-.226-.027l-5.371-1.287a.967.967,0,1,1,.45-1.88l5.371,1.287a.967.967,0,0,1-.224,1.907Z" fill="#0f1011"></path>
            <path d="M778.108,392s-7.589.807-12.913-1.046c0,0,.047,5,6.053,5.486S778.108,392,778.108,392Z" fill="#fff"></path>
          </g>
          <g opacity="0.15">
            <path d="M769.927,387.222a.71.71,0,0,0,.207-1.389l-4.182-1.28,2.92-6.518a.709.709,0,0,0-1.294-.579L764,385.439l5.718,1.752A.719.719,0,0,0,769.927,387.222Z"></path>
          </g>
          <path d="M751.115,350.993s3.634-29.392,50.73-22.173c11.741,1.8,28.381,10.966,31.077,41.009,1.232,13.782,5.983,26.776,9.607,35a6.346,6.346,0,0,1-5.794,8.92l-33.106.011a6.335,6.335,0,0,1-6.346-6.323c0-.093,0-.187.006-.28.238-5.635.426-15.175.105-29.757-1.721-8.322,2.863-14.19-3.792-12.277C768.886,372.211,752.971,351.469,751.115,350.993Z" fill="#0f1011"></path>
          <path d="M789.435,384.661a8.717,8.717,0,1,0,17.377,1.409,8.573,8.573,0,0,0-7.694-9.369c-.1-.009-.193-.017-.29-.023C792.615,376.476,789.825,379.862,789.435,384.661Z" fill="#E98862"></path>
        </g>
      </g>
      <g>
        <g>
          <circle cx="786.462" cy="531.588" r="11.816" fill="#fd5d76"></circle>
          <path d="M792.28,535.235h-2.871a1.4,1.4,0,0,1-1.4-1.4V531.89a1.4,1.4,0,0,1,.374-.953,8.531,8.531,0,0,0-1.92-.193,8.269,8.269,0,0,0-2.025.219,1.4,1.4,0,0,1,.409.99v1.88a1.4,1.4,0,0,1-1.4,1.4h-2.8a1.4,1.4,0,0,1-1.4-1.4c0-3.635,2.767-5.893,7.22-5.893s7.221,2.258,7.221,5.893A1.4,1.4,0,0,1,792.28,535.235Z" fill="#fff"></path>
        </g>
        <g>
          <circle cx="754.899" cy="531.588" r="8.355" fill="#8ddbe0"></circle>
          <g>
            <path d="M754.9,534.272a1.944,1.944,0,0,1-1.942-1.942v-3.711a1.942,1.942,0,0,1,3.884,0v3.711A1.944,1.944,0,0,1,754.9,534.272Z" fill="#fff"></path>
            <path d="M754.9,536.3a.4.4,0,0,1-.394-.394v-3.545a.394.394,0,0,1,.788,0v3.545A.394.394,0,0,1,754.9,536.3Z" fill="#fff"></path>
            <path d="M756.672,536.5h-3.545a.394.394,0,0,1,0-.788h3.545a.394.394,0,0,1,0,.788Z" fill="#fff"></path>
          </g>
        </g>
        <g>
          <circle cx="818.024" cy="531.588" r="8.355" fill="#00D176"></circle>
          <g>
            <rect x="813.693" y="528.859" width="6.736" height="5.457" fill="#fff"></rect>
            <polyline points="822.355 533.874 819.966 531.485 822.355 529.097" fill="#fff"></polyline>
          </g>
        </g>
      </g>
    </g>
    <rect x="214.095" y="314.075" width="363.15" height="241.91" fill="#f3f5fd"></rect>
    <g>
      <g>
        <rect x="257.539" y="376.524" width="52.64" height="52.64" fill="#dee8f5"></rect>
        <rect x="261.168" y="380.153" width="45.382" height="45.382" fill="#fff"></rect>
        <g>
          <polygon points="270.348 390.49 270.348 407.706 287.47 390.584 270.348 390.49" fill="#f3f5fd"></polygon>
          <circle cx="285.732" cy="405.586" r="9.612" fill="#c1d8ed"></circle>
        </g>
      </g>
      <g>
        <rect x="319.454" y="333.72" width="51.238" height="62.237" fill="#dee8f5"></rect>
        <rect x="323.745" y="338.011" width="42.657" height="53.656" fill="#fff"></rect>
        <g>
          <rect x="331.89" y="346.637" width="22.812" height="26.688" fill="#dee8f5"></rect>
          <rect x="345.238" y="366.545" width="16.495" height="16.495" rx="8.247" fill="#c1d8ed"></rect>
          <rect x="343.296" y="358.279" width="18.436" height="3.64" fill="#f3f5fd"></rect>
        </g>
      </g>
      <g>
        <rect x="329.581" y="407.676" width="42.976" height="42.976" fill="#dee8f5"></rect>
        <rect x="333.083" y="411.178" width="35.971" height="35.971" fill="#fff"></rect>
        <g>
          <rect x="354.609" y="415.508" width="9.153" height="27" fill="#dee8f5"></rect>
          <polygon points="350.123 415.508 337.949 427.682 362.163 427.682 350.123 415.508" fill="#c1d8ed"></polygon>
          <rect x="340.838" y="432.883" width="18.436" height="3.64" fill="#f3f5fd"></rect>
        </g>
      </g>
    </g>
    <g>
      <g>
        <path d="M546.141,545.288s-1.7-62.959-18.046-64.011,13.4,68.093,13.4,68.093" fill="#dee8f5"></path>
        <path d="M546.87,540.985s20.372-45.3,6.808-54.477-12.88,55.648-12.88,55.648" fill="#c1d8ed"></path>
        <rect x="532.815" y="537.085" width="18.32" height="18.9" fill="#c1d8ed"></rect>
      </g>
      <g>
        <rect x="226.355" y="487.545" width="86.17" height="68.44" fill="#c1d8ed"></rect>
        <rect x="249.235" y="487.545" width="86.17" height="68.44" fill="#dee8f5"></rect>
        <g opacity="0.53">
          <rect x="253.875" y="493.491" width="76.898" height="24.408" fill="#f3f5fd"></rect>
        </g>
        <g opacity="0.53">
          <rect x="253.875" y="523.872" width="76.898" height="24.408" fill="#f3f5fd"></rect>
        </g>
        <circle cx="292.324" cy="505.695" r="3.415" fill="#fff"></circle>
        <circle cx="292.324" cy="536.076" r="3.415" fill="#fff"></circle>
      </g>
      <g>
        <g>
          <path d="M369.672,433.667s10.873-5.764,8.445-35.372l22.465-4.166s-2.524,26.546,8.841,34.974Z" fill="#E98862"></path>
          <g opacity="0.15">
            <path d="M404.82,423.553l-18.663-14.277,14.658-.152C401.375,414.058,402.528,419.353,404.82,423.553Z"></path>
          </g>
          <path d="M365.371,386.814c1.555,8.983,6.457,17.489,14.381,20.391,9.407,3.444,16.374,3.677,27.219,3.677,14.8,0,14.311-15.434,14.726-30.988.418-15.616-.824-32.367-6.673-37.808-11.676-10.862-45.943-3.984-50.111,14.183C362.757,365.665,363.891,378.263,365.371,386.814Z" fill="#E98862"></path>
          <path d="M429.63,351.113s6.061-1.353,4.4-7.4c-1.1-4.008-6.235-3.118-6.235-3.118s4.862-.89,4.862-5.135c0-2.676-2.055-7.206-8.255-4.616-7.275,3.038-15.572,2.648-21.88,1.587-3.68-.619-7.269-1.481-10.838-1.529l-.019,0,0,0a41.773,41.773,0,0,0-12.394,1.658c-11.277,3.374-28.344,13.486-24.716,36.409,4.05,25.584,16.055,35.368,21.337,38.506a2.407,2.407,0,0,0,3.54-1.346c1.5-4.794,4.082-16.859,3.357-41.736,34.664-1.7,44.637-2.216,44.637-2.216s8.161.305,8.161-5.656S429.63,351.113,429.63,351.113Z" fill="#0f1011"></path>
          <g>
            <circle cx="400.55" cy="377.857" r="2.037" fill="#0f1011"></circle>
            <circle cx="416.624" cy="376.539" r="2.037" fill="#0f1011"></circle>
            <path d="M420.155,372.2h-.012l-5.4-.067a.957.957,0,0,1,.024-1.914l5.4.067a.958.958,0,0,1-.011,1.915Z" fill="#0f1011"></path>
            <path d="M396.153,374.165a.957.957,0,0,1-.224-1.888L401.251,371a.957.957,0,1,1,.448,1.861l-5.321,1.281A.967.967,0,0,1,396.153,374.165Z" fill="#0f1011"></path>
          </g>
          <path d="M389.951,382.842a8.637,8.637,0,1,1-17.217,1.412,8.495,8.495,0,0,1,7.9-9.314C386.793,374.739,389.562,378.088,389.951,382.842Z" fill="#E98862"></path>
          <g opacity="0.15">
            <path d="M409.6,389.157a.7.7,0,0,1-.206-1.375l4.143-1.272-2.9-6.455a.7.7,0,0,1,1.283-.576l3.225,7.181a.7.7,0,0,1-.435.96l-4.905,1.507A.7.7,0,0,1,409.6,389.157Z"></path>
          </g>
          <path d="M401.493,393.9s7.521.793,12.792-1.049c0,0-.041,4.953-5.993,5.441S401.493,393.9,401.493,393.9Z" fill="#fff"></path>
        </g>
        <g>
          <path d="M544.455,555.985h-46.53c-11.94-9.41-22.5-17.8-26.08-20.81L445.1,495.2a223.694,223.694,0,0,0-1.86,23.4,174.561,174.561,0,0,0,3.15,37.39H334.715a91.36,91.36,0,0,0,5.81-31.91c0-6.87-1.51-14.2-3.51-21.67l-13.09,29.46-3.24,24.12h-30.23l4.07-30.23a14.944,14.944,0,0,1,1.16-4.09l33.2-74.76.17.07a27.71,27.71,0,0,1,6.56-10.26c6.27-6.27,17.11-10.33,30.33-10.34.99,7.71,47.78,7.73,48.14.18,1.78.03,3.17.05,4.03.09,12.48.54,20.03,4.82,24.42,11.53l.3-.2L494,514.415Z" fill="#9ebcea"></path>
          <path d="M414.081,426.554c-.357,7.556-4.465,18.669-17.145,19.507-16.9,1.113-30-11.979-30.992-19.686h.042C382.622,426.375,404.382,426.4,414.081,426.554Z" fill="#E98862"></path>
        </g>
      </g>
    </g>
    <g>
      <rect x="482.297" y="365.683" width="6.608" height="22.424" transform="translate(-123.389 293.294) rotate(-30)" fill="#dee8f5"></rect>
      <rect x="471.969" y="365.683" width="6.608" height="22.424" fill="#dee8f5"></rect>
      <rect x="510.453" y="359.595" width="6.608" height="28.512" fill="#dee8f5"></rect>
      <rect x="503.657" y="365.683" width="6.608" height="22.424" fill="#c1d8ed"></rect>
      <rect x="517.061" y="362.801" width="6.608" height="25.306" fill="#c1d8ed"></rect>
      <rect x="493.001" y="362.011" width="10.552" height="26.095" fill="#fff"></rect>
      <g>
        <g>
          <path d="M534.255,380.656s-.032-11.154,5.571-13.483-2.786,13.483-2.786,13.483Z" fill="#dee8f5"></path>
          <path d="M537.04,380.656s2.926-20.88-3.052-20.88.268,20.88.268,20.88" fill="#dee8f5"></path>
          <path d="M535.248,381.575s-2.805-18.609-7.809-17.116,5.842,17.7,5.842,17.7Z" fill="#dee8f5"></path>
        </g>
        <rect x="527.716" y="375.059" width="13.048" height="13.048" fill="#c1d8ed"></rect>
      </g>
      <rect x="468.666" y="388.107" width="77.414" height="2.899" fill="#dee8f5"></rect>
    </g>
    <g>
      <circle cx="395.361" cy="531.532" r="11.816" fill="#fd5d76"></circle>
      <path d="M401.18,535.179h-2.871a1.4,1.4,0,0,1-1.4-1.4v-1.943a1.4,1.4,0,0,1,.373-.953,8.525,8.525,0,0,0-1.919-.192,8.272,8.272,0,0,0-2.025.218,1.4,1.4,0,0,1,.409.99v1.88a1.4,1.4,0,0,1-1.4,1.4h-2.8a1.4,1.4,0,0,1-1.4-1.4c0-3.635,2.766-5.893,7.22-5.893s7.221,2.258,7.221,5.893A1.4,1.4,0,0,1,401.18,535.179Z" fill="#fff"></path>
    </g>
    <g>
      <circle cx="363.799" cy="531.532" r="8.355" fill="#8ddbe0"></circle>
      <g>
        <path d="M363.8,534.216a1.944,1.944,0,0,1-1.942-1.942v-3.711a1.942,1.942,0,0,1,3.884,0v3.711A1.944,1.944,0,0,1,363.8,534.216Z" fill="#fff"></path>
        <path d="M363.8,536.246a.4.4,0,0,1-.394-.394v-3.545a.394.394,0,0,1,.788,0v3.545A.394.394,0,0,1,363.8,536.246Z" fill="#fff"></path>
        <path d="M365.572,536.442h-3.545a.394.394,0,0,1,0-.788h3.545a.394.394,0,0,1,0,.788Z" fill="#fff"></path>
      </g>
    </g>
    <g>
      <circle cx="426.924" cy="531.532" r="8.355" fill="#00D176"></circle>
      <g>
        <rect x="422.593" y="528.803" width="6.736" height="5.457" fill="#fff"></rect>
        <polyline points="431.254 533.818 428.866 531.429 431.254 529.041" fill="#fff"></polyline>
      </g>
    </g>
  </g>
</svg>