<svg id="Layer_1" data-name="Layer 1" xmlns="http://www.w3.org/2000/svg" viewBox="0 0 873.77 861.772">
  <g>
    <g>
      <rect id="c_3_c" x="302.951" width="433.093" height="433.093" fill="#111"></rect>
      <rect id="c_3_c-2" data-name="c_3_c" x="736.044" width="4.964" height="433.093" fill="#333"></rect>
      <rect id="c_3_c-3" data-name="c_3_c" x="736.044" width="4.964" height="433.093" fill="#555" opacity="0.05"></rect>
      <polygon id="c_3_c-4" data-name="c_3_c" points="631.125 298.437 631.125 185.125 538.307 185.125 538.307 250.957 394.53 250.957 394.53 367.52 333.423 367.52 333.423 433.093 394.53 433.093 406.302 433.093 715.211 433.093 715.211 298.437 631.125 298.437" fill="#555" opacity="0.05"></polygon>
      <g id="c_3_wh">
        <rect id="c_3_wh-2" data-name="c_3_wh" x="550.221" y="197.428" width="67.592" height="12.303" fill="#555" opacity="0.34"></rect>
        <rect id="c_3_wh-3" data-name="c_3_wh" x="550.221" y="222.923" width="67.592" height="12.303" fill="#555" opacity="0.34"></rect>
        <rect id="c_3_wh-4" data-name="c_3_wh" x="550.221" y="248.418" width="67.592" height="12.303" fill="#555" opacity="0.34"></rect>
      </g>
      <g id="c_3_wh-5" data-name="c_3_wh">
        <rect id="c_3_wh-6" data-name="c_3_wh" x="690.767" y="310.379" width="12.458" height="12.303" fill="#555" opacity="0.34"></rect>
        <rect id="c_3_wh-7" data-name="c_3_wh" x="690.767" y="335.874" width="12.458" height="12.303" fill="#555" opacity="0.34"></rect>
        <rect id="c_3_wh-8" data-name="c_3_wh" x="690.767" y="361.368" width="12.458" height="12.303" fill="#555" opacity="0.34"></rect>
        <rect id="c_3_wh-9" data-name="c_3_wh" x="667.719" y="310.379" width="12.458" height="12.303" fill="#555" opacity="0.34"></rect>
        <rect id="c_3_wh-10" data-name="c_3_wh" x="667.719" y="335.874" width="12.458" height="12.303" fill="#555" opacity="0.34"></rect>
        <rect id="c_3_wh-11" data-name="c_3_wh" x="667.719" y="361.368" width="12.458" height="12.303" fill="#555" opacity="0.34"></rect>
        <rect id="c_3_wh-12" data-name="c_3_wh" x="645.295" y="310.379" width="12.458" height="12.303" fill="#555" opacity="0.34"></rect>
        <rect id="c_3_wh-13" data-name="c_3_wh" x="645.295" y="335.874" width="12.458" height="12.303" fill="#555" opacity="0.34"></rect>
        <rect id="c_3_wh-14" data-name="c_3_wh" x="645.295" y="361.368" width="12.458" height="12.303" fill="#555" opacity="0.34"></rect>
      </g>
      <polygon points="736.044 214.117 648.899 214.117 648.899 0 641.691 0 641.691 214.117 406.302 214.117 406.302 0 399.095 0 399.095 214.117 302.951 214.117 302.951 221.324 399.095 221.324 399.095 433.093 406.302 433.093 406.302 221.324 641.691 221.324 641.691 433.093 648.899 433.093 648.899 221.324 736.044 221.324 736.044 214.117" fill="#222"></polygon>
      <rect id="c_3_c-5" data-name="c_3_c" x="285.698" y="432.571" width="467.599" height="14.403" fill="#333"></rect>
      <rect id="c_3_c-6" data-name="c_3_c" x="285.698" y="432.571" width="467.599" height="14.403" fill="#292a2e" opacity="0.1"></rect>
      <rect id="c_3_c-7" data-name="c_3_c" x="753.297" y="432.571" width="6.751" height="14.403" fill="#292a2e" opacity="0.1"></rect>
      <rect id="c_3_c-8" data-name="c_3_c" x="753.297" y="432.571" width="6.751" height="14.403" fill="#292a2e" opacity="0.1"></rect>
      <g>
        <rect x="302.951" y="7.731" width="438.057" height="10.709" fill="#444"></rect>
        <rect x="302.951" y="27.733" width="438.057" height="10.709" fill="#444"></rect>
        <rect x="302.951" y="47.734" width="438.057" height="10.709" fill="#444"></rect>
        <rect x="302.951" y="67.736" width="438.057" height="10.709" fill="#444"></rect>
        <rect x="302.951" y="87.738" width="438.057" height="10.709" fill="#444"></rect>
      </g>
      <rect x="687.916" width="6.564" height="110.524" fill="#555"></rect>
      <circle cx="691.755" cy="117.378" r="9.019" fill="#555"></circle>
    </g>
    <g>
      <path d="M861.122,861.772H.7a.7.7,0,1,1,0-1.4h860.42a.7.7,0,0,1,0,1.4Z" fill="#292a2e"></path>
      <g opacity="0.65">
        <path d="M861.122,861.772H.7a.7.7,0,1,1,0-1.4h860.42a.7.7,0,0,1,0,1.4Z" fill="#292a2e"></path>
      </g>
    </g>
    <g>
      <polygon points="60.603 860.541 58.639 860.163 89.335 555.131 91.299 555.509 60.603 860.541" fill="#494949"></polygon>
      <polygon points="174.901 860.541 172.937 860.163 203.633 555.131 205.596 555.509 174.901 860.541" fill="#494949"></polygon>
      <g>
        <polygon points="427.549 860.541 429.513 860.163 398.818 555.131 396.854 555.509 427.549 860.541" fill="#494949"></polygon>
        <polygon points="313.252 860.541 315.215 860.163 284.52 555.131 282.556 555.509 313.252 860.541" fill="#494949"></polygon>
      </g>
      <rect x="279.522" y="420.42" width="2" height="135.496" transform="translate(-62.142 41.422) rotate(-7.605)" fill="#494949"></rect>
      <rect x="73.698" y="420.42" width="2" height="135.496" transform="translate(-63.953 14.181) rotate(-7.605)" fill="#494949"></rect>
      <g>
        <rect x="79.149" y="545.485" width="220.99" height="19.671" rx="9.835" fill="#292a2e"></rect>
        <rect x="79.149" y="545.485" width="220.99" height="19.671" rx="9.835" fill="#00d176" opacity="0.8"></rect>
        <path d="M290.3,566.156H88.984a10.836,10.836,0,0,1,0-21.671H290.3a10.836,10.836,0,0,1,0,21.671ZM88.984,546.485a8.836,8.836,0,0,0,0,17.671H290.3a8.836,8.836,0,0,0,0-17.671Z" fill="#292a2e"></path>
      </g>
      <g>
        <rect x="189.644" y="545.485" width="220.99" height="19.671" rx="9.835" fill="#00d176"></rect>
        <path d="M400.8,566.156H199.48a10.836,10.836,0,1,1,0-21.671H400.8a10.836,10.836,0,1,1,0,21.671ZM199.48,546.485a8.836,8.836,0,1,0,0,17.671H400.8a8.836,8.836,0,1,0,0-17.671Z" fill="#292a2e"></path>
      </g>
      <g>
        <path d="M261.515,421.016H66.268a13.144,13.144,0,0,1-13.034-11.447l-12.915-99.18a13.144,13.144,0,0,1,13.035-14.842H248.6a13.144,13.144,0,0,1,13.034,11.447l12.915,99.18A13.145,13.145,0,0,1,261.515,421.016Z" fill="#292a2e"></path>
        <path d="M261.515,421.016H66.268a13.144,13.144,0,0,1-13.034-11.447l-12.915-99.18a13.144,13.144,0,0,1,13.035-14.842H248.6a13.144,13.144,0,0,1,13.034,11.447l12.915,99.18A13.145,13.145,0,0,1,261.515,421.016Z" fill="#00d176" opacity="0.8"></path>
        <path d="M261.515,422.016H66.268A14.181,14.181,0,0,1,52.242,409.7l-12.915-99.18a14.144,14.144,0,0,1,14.026-15.971H248.6a14.182,14.182,0,0,1,14.027,12.319l12.915,99.179a14.146,14.146,0,0,1-14.027,15.971ZM53.353,296.547A12.144,12.144,0,0,0,41.311,310.26l12.914,99.18a12.177,12.177,0,0,0,12.043,10.576H261.515A12.145,12.145,0,0,0,273.558,406.3l-12.915-99.179A12.175,12.175,0,0,0,248.6,296.547Z" fill="#292a2e"></path>
      </g>
      <g>
        <path d="M272.556,421.016H77.309a13.145,13.145,0,0,1-13.035-11.447l-12.915-99.18a13.146,13.146,0,0,1,13.035-14.842H259.641a13.145,13.145,0,0,1,13.035,11.447l12.915,99.18A13.146,13.146,0,0,1,272.556,421.016Z" fill="#00d176"></path>
        <path d="M272.556,422.016H77.309A14.18,14.18,0,0,1,63.283,409.7l-12.915-99.18a14.144,14.144,0,0,1,14.026-15.971H259.641a14.18,14.18,0,0,1,14.026,12.319l12.915,99.179a14.144,14.144,0,0,1-14.026,15.971ZM64.394,296.547A12.145,12.145,0,0,0,52.351,310.26l12.915,99.18a12.175,12.175,0,0,0,12.043,10.576H272.556A12.145,12.145,0,0,0,284.6,406.3l-12.915-99.179a12.176,12.176,0,0,0-12.043-10.577Z" fill="#292a2e"></path>
      </g>
    </g>
    <g>
      <path d="M547.921,809.525s5.362,27.794,31.384,29.342,20.38,22.28,20.38,22.28H500.241V811.463Z" fill="#225EDD"></path>
      <path d="M358.733,791.977s-7.457,27.306,15.21,40.183,8.452,28.987,8.452,28.987l-89.232-43.9,21.931-44.582Z" fill="#225EDD"></path>
      <g>
        <path d="M278.659,144.35s12.974-9.793,16.189-32.335c2.489-17.454-13.611-6.147-13.611-6.147s1.67-12.584-7.5-11.336-14.3,14.47-14.3,14.47" fill="#0c0c0c"></path>
        <path d="M226.348,96.005s-45.495,4.878-29.049,66.526l4.026.269,8.172.548" fill="#0c0c0c"></path>
        <path id="sk" d="M271.039,226.913c-.2-.026-2.42,36.8-45.206,33.592-29.62-2.218-40.181-33.644-40.86-33.644,3.194-.679,7.14-1.709,8.709-2.063A17.279,17.279,0,0,0,206.9,210.266c.867-5.22-.6-31.928-.151-37.21l45.467,10.149c-.635,11.155-5.082,37.016,10.5,41.593C265.313,225.555,268.106,226.251,271.039,226.913Z" fill="#E98862"></path>
        <path id="sh" d="M252.855,214.229a32.929,32.929,0,0,1-1.368-7.056,75.223,75.223,0,0,1,.3-16.413,49.849,49.849,0,0,1-25.129-11.01c-.844,3.118-5.487,16.742-4.2,19.706C224.883,205.057,236.3,214.229,252.855,214.229Z" fill="#0c0c0c" opacity="0.52"></path>
        <path d="M243.471,206.94c-17.938-1.609-39.407-12.942-39.716-37.291l-.28-21.969c-.309-24.349,12.228-44.25,35.154-44.541h0c22.925-.292,40.312,19.229,40.621,43.577l.124,9.726a73.513,73.513,0,0,1-.729,9.983c-1.176,8.75-3,22.053-8.937,31.053C264.1,205.973,254.93,207.968,243.471,206.94Z" fill="#E98862"></path>
        <path d="M251.793,184.684a23.642,23.642,0,0,0,10.77-2.057.578.578,0,1,0-.454-1.064c-7.28,3.105-13.891,2.65-19.117-1.315a3.859,3.859,0,0,0-.329-.233.579.579,0,0,0-.575,1c.042.026.109.079.2.152A17.343,17.343,0,0,0,251.793,184.684Z" fill="#0c0c0c"></path>
        <path d="M251.62,190.169a11.65,11.65,0,0,0,2.006-.048.578.578,0,0,0-.122-1.15c-4.007.426-5.919-1.41-6-1.489a.579.579,0,0,0-.819.818A7.85,7.85,0,0,0,251.62,190.169Z" fill="#0c0c0c"></path>
        <circle cx="271.679" cy="158.3" r="2.824" fill="#0c0c0c"></circle>
        <circle cx="244.091" cy="156.569" r="2.824" fill="#0c0c0c"></circle>
        <path d="M205.273,177.049c-6.967.089-12.709-7.293-12.8-14.26s5.51-10.88,12.477-10.969l3.649,4.622,2.662,20.531Z" fill="#E98862"></path>
        <g>
          <path d="M212.2,165.854s2.353-34.453,12.8-36.58c6.958-1.417,23.831,8.452,39.459,5.471,6.838-1.3,13.329.389,13.989,3.618.261,1.279,4.521-17.1-6.186-31.044-8.525-11.1-36.423-14.24-49.115-10.6-35.143,10.082-19.635,56.618-19.635,56.618l1.567,11.877Z" fill="#0c0c0c"></path>
          <path d="M256,176.553a.346.346,0,0,0,.045,0c2.245-.023,6.008-.311,5.993-1.991-.015-1.392-3.975-16.375-4.428-18.079a.572.572,0,0,0-1.1.293c1.759,6.636,4.379,16.852,4.39,17.8-.217.4-2.536.811-4.861.835a.572.572,0,0,0-.034,1.142Z" fill="#0c0c0c"></path>
          <path d="M263.664,142.988a13.584,13.584,0,0,1,7.21,0,11.969,11.969,0,0,1,3.28,1.436,14.039,14.039,0,0,1,2.739,2.236.832.832,0,0,1-1.131,1.22l-.051-.044a12.28,12.28,0,0,0-2.5-1.789,10.013,10.013,0,0,0-2.837-1.035,11.322,11.322,0,0,0-5.877.328l-.08.028a1.251,1.251,0,0,1-.834-2.359Z" fill="#0c0c0c"></path>
          <path d="M246.956,144.405a11.327,11.327,0,0,0-5.78-1.109,10.019,10.019,0,0,0-2.95.648,12.294,12.294,0,0,0-2.712,1.44l-.054.036a.833.833,0,0,1-.962-1.358,14.1,14.1,0,0,1,3.013-1.852,12.027,12.027,0,0,1,3.442-.986,13.149,13.149,0,0,1,3.594-.009,13.007,13.007,0,0,1,3.553.967,1.251,1.251,0,0,1-1,2.3c-.023-.01-.047-.021-.069-.033Z" fill="#0c0c0c"></path>
        </g>
        <ellipse cx="257.435" cy="105.526" rx="9.539" ry="14.04" transform="translate(-16.14 54.88) rotate(-11.801)" fill="#0c0c0c"></ellipse>
      </g>
      <g>
        <path d="M303.466,784.264l75.249-237.39h-136.4c-27.4,0-38.822-23.235-38.822-50.633s26.936-51.416,54.334-51.416H441.917c16.711,0,35.449,10.22,44.621,24.19s6.692,35.617.047,50.951l-120.5,292.667" fill="#262626"></path>
        <path d="M303.466,784.264l75.249-237.39h-136.4c-27.4,0-38.822-23.235-38.822-50.633s26.936-51.416,54.334-51.416H441.917c16.711,0,35.449,10.22,44.621,24.19s6.692,35.617.047,50.951l-120.5,292.667" fill="#0a0a0a" opacity="0.8"></path>
        <path d="M494.522,835.336,368.7,546.874l-165.209-.011c-38.711-3.035-56.44-24.25-55.876-51.642.556-27.045,14.25-53.758,41.173-53.758H411.46c19.92.41,35.592,22.423,42.982,40.925l104.6,335.288" fill="#262626"></path>
        <path d="M136.347,441.794s-7.337,47.846,4.293,74.447c14.519,33.21,68.947,30.623,68.947,30.623l-3.067-105.4Z" fill="#262626"></path>
      </g>
      <path d="M459.176,440.853l-116.7-24.182a29.527,29.527,0,0,1-21.616-18.438l-45.9-120.953a29.529,29.529,0,1,1,55.215-20.954l40.152,105.8,100.835,20.894S461.2,441.272,459.176,440.853Z" fill="#225EDD"></path>
      <path d="M324.2,308c-1.347,15.833-10.9,114.61-12.2,134.112H136.424c-1.009-17.589-5.539-94.5-9.364-128.9-3.652-32.821-8.771-47.757-4.565-57.957,7.418-17.989,31.03-26.023,47.02-28.187,9.763-1.322,24.448-2.27,24.448-2.27s1.244,25.153,30.892,26.553c40.359,1.9,37.664-26.553,37.864-26.553,6.538,0,42.128,4.755,51.027,10.555,12.57,8.193,16.284,19.357,16.431,29.615C330.346,276.778,325.728,290.039,324.2,308Z" fill="#225EDD"></path>
      <path d="M317.3,388.707l-.042,0a.5.5,0,0,1-.457-.54l4.558-54.754a.487.487,0,0,1,.539-.457.5.5,0,0,1,.457.54l-4.558,54.754A.5.5,0,0,1,317.3,388.707Z" fill="#0c0c0c"></path>
      <g>
        <path d="M345.527,431.253,384.051,312.83a10.366,10.366,0,0,1,9.857-7.159H550.86a10.365,10.365,0,0,1,9.857,13.572L522.193,437.666a10.366,10.366,0,0,1-9.857,7.159H355.384A10.365,10.365,0,0,1,345.527,431.253Z" fill="#292a2e"></path>
        <path d="M345.527,431.253,384.051,312.83a10.366,10.366,0,0,1,9.857-7.159H550.86a10.365,10.365,0,0,1,9.857,13.572L522.193,437.666a10.366,10.366,0,0,1-9.857,7.159H355.384A10.365,10.365,0,0,1,345.527,431.253Z" fill="#fff" opacity="0.2"></path>
        <rect x="267.149" y="435.223" width="114.544" height="9.602" rx="4.74" fill="#292a2e"></rect>
        <rect x="267.149" y="435.223" width="114.544" height="9.602" rx="4.74" fill="#fff" opacity="0.2"></rect>
        <circle cx="453.122" cy="381.025" r="16.461" fill="#fff"></circle>
      </g>
      <g>
        <rect x="284.056" y="285.926" width="41.735" height="51.184" fill="#fff"></rect>
        <path d="M284.056,328.608a17.091,17.091,0,1,1,17.091-17.091A17.11,17.11,0,0,1,284.056,328.608Zm0-27.181a10.091,10.091,0,1,0,10.091,10.09A10.1,10.1,0,0,0,284.056,301.427Z" fill="#fff"></path>
      </g>
      <g id="ha">
        <path d="M286.463,319.1a4.511,4.511,0,0,0-5.067-2.809.412.412,0,0,0,.031-.151l1.4-.626a4.623,4.623,0,0,0,2.721-5.177,4.518,4.518,0,0,0-6.246-3.133L276,308.681c0-.013,0-.026-.007-.039a.361.361,0,0,0-.048-.074,4.507,4.507,0,0,0,1.405-5.431c-.917-2.481-4.167-2.679-6.316-1.72L262.4,304.9l2.606-2.643a4.685,4.685,0,0,0,.046-6.395A4.514,4.514,0,0,0,258.5,296L227.8,329.528l10.5,10.112a22.726,22.726,0,0,0,25.028,4.387l18.712-8.389a4.622,4.622,0,0,0,2.721-5.177,4.512,4.512,0,0,0-4.038-3.5.4.4,0,0,0-.317-.473l3.455-1.542A4.686,4.686,0,0,0,286.463,319.1Z" fill="#E98862"></path>
        <path id="sh-2" data-name="sh" d="M269.757,311.518a.424.424,0,0,1-.156-.819l5.84-2.3a.424.424,0,1,1,.311.789l-5.84,2.3A.427.427,0,0,1,269.757,311.518Z" fill="#0c0c0c" opacity="0.2"></path>
        <path id="sh-3" data-name="sh" d="M273.016,319.776a.424.424,0,0,1-.158-.817l7.988-3.213a.424.424,0,0,1,.316.786l-7.987,3.214A.444.444,0,0,1,273.016,319.776Z" fill="#0c0c0c" opacity="0.2"></path>
        <path id="sh-4" data-name="sh" d="M276.5,328.742a.424.424,0,0,1-.149-.821l3.808-1.429a.424.424,0,1,1,.3.794l-3.808,1.429A.431.431,0,0,1,276.5,328.742Z" fill="#0c0c0c" opacity="0.2"></path>
      </g>
      <g>
        <path d="M295.343,253.369a1,1,0,0,1-.891-.544c-2.277-4.439-5.11-9.965-4.79-15.758.254-4.607,2.414-8.7,4.5-12.653a49.938,49.938,0,0,0,3.435-7.464,23.742,23.742,0,0,0-3.4-21.236,1,1,0,1,1,1.608-1.188,25.769,25.769,0,0,1,3.7,23.051,51.533,51.533,0,0,1-3.566,7.771c-2.08,3.939-4.044,7.659-4.274,11.83-.29,5.251,2.294,10.29,4.573,14.735a1,1,0,0,1-.889,1.456Z" fill="#fff"></path>
        <path d="M311.4,268.977a1,1,0,0,1-.484-1.875c3.706-2.044,4.121-7.733,2.38-12.052a43.534,43.534,0,0,0-3.023-5.738,35.82,35.82,0,0,1-3.72-7.6,18.891,18.891,0,0,1,4.782-18.686,1,1,0,0,1,1.393,1.435,16.848,16.848,0,0,0-4.264,16.663,33.845,33.845,0,0,0,3.529,7.168,44.744,44.744,0,0,1,3.157,6.009c2.039,5.057,1.585,11.875-3.269,14.551A1,1,0,0,1,311.4,268.977Z" fill="#fff"></path>
      </g>
      <path d="M263,356.145,115.75,417.085a29.529,29.529,0,0,1-38.868-37.609L120.8,259.522c5.678-15.288,21.673-24.079,36.962-18.4a29.529,29.529,0,0,1,17.4,37.962l-20.032,56.775,86.3-33.271" fill="#225EDD"></path>
      <path d="M262.641,356.689a.4.4,0,0,1-.366-.246l-21.425-53.2-86.011,33.194a.393.393,0,0,1-.508-.51l13.3-34.136a.393.393,0,0,1,.733.286L155.388,335.38l85.541-33.013a.394.394,0,0,1,.507.22l21.57,53.561a.4.4,0,0,1-.218.513A.4.4,0,0,1,262.641,356.689Z" fill="#0c0c0c"></path>
      <path d="M127.826,347a.393.393,0,0,1-.144-.76l26.939-10.6a.394.394,0,1,1,.289.733l-26.94,10.6A.4.4,0,0,1,127.826,347Z" fill="#0c0c0c"></path>
      <path d="M134.1,409.969a.393.393,0,0,1-.15-.757l128.545-53.28a.393.393,0,1,1,.3.727l-128.545,53.28A.38.38,0,0,1,134.1,409.969Z" fill="#0c0c0c"></path>
    </g>
    <g>
      <path d="M786.711,730.631a1,1,0,0,1-.707-.293c-1.409-1.409-3.705-27.259-9.891-104.223-2.532-31.493-4.923-61.238-6.667-79.315-.125-1.291-.625-1.442-.79-1.491-2.388-.721-9.652,5.007-13.707,10.022a1,1,0,0,1-1.556-1.257c2.682-3.316,11.422-12.01,15.838-10.681.891.268,2,1.042,2.206,3.214,1.746,18.093,4.137,47.847,6.669,79.347,3.759,46.77,8.018,99.756,9.417,103.093a1,1,0,0,1-.812,1.584Z" fill="#494949"></path>
      <ellipse cx="749.115" cy="557.817" rx="38.507" ry="28.398" transform="translate(-184.279 591.098) rotate(-38.715)" fill="#00D176"></ellipse>
      <ellipse cx="749.115" cy="557.817" rx="38.507" ry="28.398" transform="translate(-184.279 591.098) rotate(-38.715)" fill="#fff" opacity="0.2"></ellipse>
      <path d="M723.721,585.01a.5.5,0,0,1-.384-.82l47.291-57.029a.5.5,0,1,1,.769.639l-47.291,57.029A.5.5,0,0,1,723.721,585.01Z" fill="#fff"></path>
      <path d="M797.026,718.405a1,1,0,0,1-.945-1.329l17.764-51.087a9.5,9.5,0,0,1,15.529-3.748l9.391,8.972a1,1,0,0,1-1.382,1.446l-9.391-8.971a7.5,7.5,0,0,0-12.258,2.958L797.97,717.733A1,1,0,0,1,797.026,718.405Z" fill="#494949"></path>
      <ellipse cx="841.105" cy="669.299" rx="28.398" ry="38.507" transform="translate(-233.795 666.536) rotate(-38.363)" fill="#00D176"></ellipse>
      <path d="M778.641,727.373a1,1,0,0,1-.972-.768l-29.81-124.644a4.751,4.751,0,0,0-8.213-2l-9.189,10.619a1,1,0,1,1-1.513-1.309l9.19-10.619A6.751,6.751,0,0,1,749.8,601.5l29.81,124.644a1,1,0,0,1-.74,1.205A.983.983,0,0,1,778.641,727.373Z" fill="#494949"></path>
      <ellipse cx="739.66" cy="633.426" rx="38.507" ry="28.398" transform="translate(-10.536 1254.338) rotate(-80.189)" fill="#00D176"></ellipse>
      <path d="M786.713,730.631a1.046,1.046,0,0,1-.124-.008,1,1,0,0,1-.871-1.114l19.037-154.558A8.806,8.806,0,0,1,820.1,570.2l21.758,24.643a1,1,0,0,1-1.5,1.324L818.6,571.523A6.806,6.806,0,0,0,806.74,575.2L787.7,729.753A1,1,0,0,1,786.713,730.631Z" fill="#494949"></path>
      <ellipse cx="830.474" cy="589.898" rx="28.398" ry="38.507" transform="translate(-87.692 1031.076) rotate(-61.051)" fill="#00D176"></ellipse>
      <ellipse cx="841.105" cy="669.299" rx="28.398" ry="38.507" transform="translate(-233.795 666.536) rotate(-38.363)" fill="#fff" opacity="0.2"></ellipse>
      <ellipse cx="739.66" cy="633.426" rx="38.507" ry="28.398" transform="translate(-10.536 1254.338) rotate(-80.189)" fill="#fff" opacity="0.5"></ellipse>
      <ellipse cx="830.474" cy="589.898" rx="28.398" ry="38.507" transform="translate(-87.692 1031.076) rotate(-61.051)" fill="#fff" opacity="0.5"></ellipse>
      <polygon points="811.059 861.772 762.363 861.772 754.294 705.968 819.129 705.968 811.059 861.772" fill="#292a2e"></polygon>
      <polygon points="811.059 861.772 762.363 861.772 754.294 705.968 819.129 705.968 811.059 861.772" fill="#fff" opacity="0.3"></polygon>
      <path d="M865.005,699.992a.5.5,0,0,1-.393-.189l-47.8-60.387a.5.5,0,0,1,.784-.621l47.8,60.386a.5.5,0,0,1-.391.811Z" fill="#fff"></path>
      <path d="M860.991,613.375a.494.494,0,0,1-.294-.1L799.53,568.616a.5.5,0,1,1,.59-.808l61.166,44.663a.5.5,0,0,1-.295.9Z" fill="#fff"></path>
      <path d="M730.616,670.723a.477.477,0,0,1-.129-.017.5.5,0,0,1-.354-.612l19.472-72.953a.5.5,0,1,1,.966.258L731.1,670.352A.5.5,0,0,1,730.616,670.723Z" fill="#fff"></path>
    </g>
  </g>
</svg>